<svg xmlns="http://www.w3.org/2000/svg" style="isolation:isolate" width="70" height="60">
  <path d="M10 4v32h50V4H10zm7 7h16v7H17v-7zm20 0h16v7H37v-7zM17 22h16v7H17v-7zm20 0h16v7H37v-7zM20.812 38c.78-.073.97 1.927.188 2h28c-.548-.008-.986-.452-.986-1s.438-.992.986-1H21c-.037-.002-.057-.002-.094 0-.036-.002-.057-.002-.094 0z" fill-rule="evenodd" fill="#B9B9B9" stroke-width="2" stroke="rgba(0,0,0,0)"/>
  <path d="M16.42 53.908h5.35v-3.433h1.523v8.402H21.77v-3.434h-5.35v3.434h-1.524v-8.402h1.524v3.433zm17.473 1.57q0 .768-.264 1.413-.27.65-.74 1.12-.47.47-1.11.73-.64.26-1.4.26h-2.06q-.76 0-1.4-.26-.65-.26-1.12-.73-.47-.47-.74-1.11-.27-.64-.27-1.41v-1.61q0-.76.263-1.41.27-.64.74-1.11.47-.46 1.114-.73.645-.26 1.4-.26h2.064q.75 0 1.393.27.643.26 1.11.73.47.47.734 1.11.266.65.266 1.41v1.61zm-1.524-1.605q0-.45-.15-.817-.15-.367-.41-.627-.26-.27-.63-.41-.37-.15-.81-.15h-2.06q-.45 0-.81.14-.37.14-.63.4-.27.26-.41.62-.15.37-.15.82v1.603q0 .45.14.82.14.366.405.63.264.26.63.4.367.145.81.145h2.053q.443 0 .81-.144.366-.14.63-.4.263-.26.41-.626.14-.37.14-.82v-1.6zm12.8 5.004h-1.53v-5.004l-2.7 4.752q-.1.182-.28.275-.18.094-.39.094-.2 0-.38-.094-.178-.093-.27-.275l-2.72-4.752v5.004h-1.53v-7.752q0-.264.156-.47.154-.204.406-.274.123-.02.246-.02.123.01.237.06.12.05.21.13.096.08.16.19l3.47 6.03 3.466-6.03q.133-.22.37-.31t.494-.03q.25.07.406.28.16.208.16.47v7.75zm8.67-3.434h-4.81v-1.535h4.81v1.535zm.68 3.434h-5.49q-.32 0-.69-.11-.38-.113-.7-.368-.32-.26-.536-.67-.214-.41-.214-1v-5.49q0-.16.06-.3.058-.14.16-.25.103-.11.244-.17.14-.06.304-.06h6.86v1.52h-6.1v4.74q0 .3.156.452.16.16.467.16h5.487v1.52z" fill-rule="evenodd" fill="#50505A" stroke="rgba(0,0,0,0)" stroke-linecap="square"/>
</svg>
