<?xml version="1.0" standalone="no"?><!-- Generator: Gravit.io --><svg xmlns="http://www.w3.org/2000/svg" xmlns:xlink="http://www.w3.org/1999/xlink" style="isolation:isolate" width="30" height="30"><rect x="4.999999999999998" y="10.833333333333336" width="4.166666666666666" height="14.166666666666671" transform="matrix(1,0,0,1,0,0)" fill="rgb(255,255,255)" stroke-width="2.083333333333334" stroke="rgba(0,0,0,0)" stroke-linejoin="miter" stroke-linecap="butt"/><path d=" M 7.07083333333333 9.166666666666668 L 7.047499999999997 9.166666666666668 C 5.8041666666666645 9.166666666666668 4.999999999999997 8.240000000000002 4.999999999999997 7.082500000000002 C 4.999999999999997 5.900000000000001 5.829166666666663 5.000000000000001 7.094999999999998 5.000000000000001 C 8.362499999999997 5.000000000000001 9.14333333333333 5.900000000000001 9.166666666666664 7.082500000000002 C 9.166666666666664 8.23916666666667 8.362499999999997 9.166666666666668 7.07083333333333 9.166666666666668 Z " fill="rgb(255,255,255)" stroke-width="2.083333333333334" stroke="rgba(0,0,0,0)" stroke-linejoin="miter" stroke-linecap="butt"/><path d=" M 25.000000000000004 25.000000000000007 L 20.833333333333336 25.000000000000007 L 20.833333333333336 17.417500000000004 C 20.833333333333336 15.585833333333337 19.8125 14.335833333333337 18.173333333333332 14.335833333333337 C 16.9225 14.335833333333337 16.245833333333334 15.17916666666667 15.9175 15.994166666666668 C 15.7975 16.285833333333336 15.833333333333332 17.092500000000005 15.833333333333332 17.500000000000004 L 15.833333333333332 25.000000000000007 L 11.666666666666668 25.000000000000007 L 11.666666666666668 10.833333333333336 L 15.833333333333332 10.833333333333336 L 15.833333333333332 13.013333333333335 C 16.434166666666666 12.083333333333336 17.375 10.833333333333336 19.781666666666666 10.833333333333336 C 22.763333333333335 10.833333333333336 24.99916666666667 12.708333333333336 24.99916666666667 16.895000000000003 L 25.000000000000004 25.000000000000007 L 25.000000000000004 25.000000000000007 Z " fill="rgb(255,255,255)" stroke-width="2.083333333333334" stroke="rgba(0,0,0,0)" stroke-linejoin="miter" stroke-linecap="butt"/></svg>