<svg xmlns="http://www.w3.org/2000/svg" style="isolation:isolate" width="81" height="60">
  <circle vector-effect="non-scaling-stroke" r="1" fill="#B9B9B9" transform="matrix(5.24235 0 0 4.8611 20.055 10.86)" stroke="rgba(0,0,0,0)"/>
  <circle vector-effect="non-scaling-stroke" r="1" fill="#B9B9B9" transform="matrix(5.24235 0 0 4.69907 40.675 36.3)" stroke="rgba(0,0,0,0)"/>
  <circle vector-effect="non-scaling-stroke" r="1" fill="#B9B9B9" transform="matrix(5.24235 0 0 4.8611 60.945 10.86)" stroke="rgba(0,0,0,0)"/>
  <path d="M20.754 15.466l16.426 18.08-13.212-19.444M43.82 33.546l17.125-18.08-3.723-1.364" fill="#B9B9B9" stroke="rgba(0,0,0,0)" stroke-linecap="square"/>
  <path d="M8.78 58.227q0 .164-.06.304-.062.15-.164.25-.103.11-.243.16-.14.06-.3.06-.14 0-.284-.05-.15-.05-.26-.17L1.9 52.97v5.915H.38v-7.75q0-.234.13-.425.13-.19.34-.285.218-.09.447-.044.22.05.39.22l5.563 5.8v-5.92h1.53v7.76zm8.68-2.784h-4.812v-1.535h4.81v1.535zm.685 3.434h-5.497q-.316 0-.69-.11-.376-.113-.695-.368-.32-.26-.534-.67-.22-.41-.22-1v-5.49q0-.16.06-.3.06-.14.16-.25.1-.11.24-.17.14-.06.3-.06h6.86v1.52h-6.1v4.74q0 .3.15.45.16.16.46.16h5.48v1.52zm9.064-6.88h-3.36v6.88h-1.53v-6.88h-3.36v-1.522h8.24v1.523zm11.84-1.522l-1.4 7.875q-.05.234-.21.404-.17.17-.4.217-.24.05-.46-.05-.22-.09-.34-.29l-2.79-4.58-2.8 4.58q-.1.17-.27.27-.18.1-.38.1-.27 0-.48-.17-.21-.17-.26-.45l-1.42-7.88h1.55l1.01 5.55 2.4-3.83q.1-.17.27-.26t.37-.09q.2 0 .37.1.17.1.28.27l2.39 3.83 1.01-5.55h1.54zm10.12 5.004q0 .76-.27 1.41-.27.64-.73 1.11-.47.47-1.11.73-.65.26-1.4.26H43.6q-.756 0-1.4-.26-.646-.26-1.114-.73-.47-.47-.736-1.12-.266-.65-.266-1.41v-1.6q0-.77.265-1.41.26-.65.73-1.12.47-.47 1.11-.73.64-.26 1.4-.26h2.06q.75 0 1.39.26.64.26 1.11.73.47.46.73 1.11.26.64.26 1.41v1.6zm-1.53-1.61q0-.45-.15-.82-.15-.37-.41-.63t-.63-.41q-.37-.15-.81-.15H43.6q-.446 0-.812.14-.365.14-.63.4-.263.26-.406.62-.14.37-.14.82v1.61q0 .45.143.81.144.37.41.63.264.26.63.4t.81.14h2.052q.443 0 .81-.14.366-.15.63-.41.263-.26.407-.63.142-.366.142-.817v-1.6zm11.42-.58q0 .52-.13.93-.13.41-.35.72-.22.31-.51.53-.29.22-.6.36-.32.14-.64.21-.32.06-.6.06l3.18 2.74h-2.35l-3.16-2.72h-1.09V54.6h3.44q.28-.024.52-.12.23-.097.41-.26t.26-.397q.1-.236.1-.53v-.966q0-.13-.034-.193-.03-.068-.08-.1t-.1-.038q-.06-.008-.106-.008H52.2v6.88h-1.52v-7.63q0-.158.06-.3.06-.14.16-.245.105-.105.246-.164.14-.06.304-.06h5.785q.51 0 .862.18.35.18.57.46.22.28.316.6.1.32.1.6v.97zm10.34 5.58h-2.16l-3.43-3.44h-1.07V53.9h1.07l3.42-3.432h2.17l-4.32 4.2 4.32 4.2zm-7.27 0h-1.52v-8.4h1.52v8.4zm16.3-2.48q0 .45-.12.81-.12.36-.31.63t-.44.47q-.25.19-.52.31t-.55.18q-.28.06-.53.06H70.1v-1.52h5.877q.44 0 .682-.26.24-.26.24-.69 0-.21-.07-.39-.07-.18-.19-.31t-.3-.2-.388-.07h-3.5q-.37 0-.8-.13-.43-.14-.796-.43-.37-.3-.61-.77Q70 53.6 70 52.92q0-.69.243-1.16.24-.48.61-.77.367-.3.79-.43.43-.13.8-.13h5.185v1.52h-5.18q-.44 0-.68.26-.25.26-.25.692 0 .437.24.69.245.255.68.255H76q.246 0 .52.06.277.06.55.19.272.13.518.324t.436.47q.19.274.3.63.11.357.11.808z" fill-rule="evenodd" fill="#58585A" stroke="rgba(0,0,0,0)" stroke-linecap="square"/>
</svg>
