<?xml version="1.0" standalone="no"?><!-- Generator: Gravit.io --><svg xmlns="http://www.w3.org/2000/svg" xmlns:xlink="http://www.w3.org/1999/xlink" style="isolation:isolate" width="30" height="29"><path d=" M 15 -0.03125 C 6.75 -0.03125 0 6.71875 0 14.96875 C 0 21.34375 4 26.78125 9.5625 28.96875 C 10.125 28.843749999999996 10.625 28.34375 10.625 27.71875 L 10.625 24.96875 L 9 24.96875 C 7.8125 24.96875 6.8125 24.40625 6.312500000000001 23.53125 C 6.187500000000002 23.281250000000004 6.062500000000001 22.968750000000004 5.937500000000001 22.656250000000004 C 5.687500000000001 21.96875 5.375000000000001 21.218750000000004 4.750000000000001 20.781250000000004 C 4.5 20.59375 4.375 20.21875 4.4375 19.90625 C 4.562499999999999 19.59375 4.874999999999999 19.34375 5.4375 19.40625 C 6.0625 19.46875 7 20.156250000000004 7.5625 20.90625 C 8.0625 21.53125 8.4375 21.90625 9.1875 21.90625 L 9.375 21.90625 C 9.9375 21.90625 11.3125 21.90625 11.5625 21.65625 L 11.5625 21.65625 C 11.75 21.406250000000004 11.875 21.21875 12.0625 21.03125 C 8.3125 20.28125 6.1875 18.093750000000004 6.1875 14.781250000000002 C 6.1875 13.656250000000002 6.5 12.53125 7.1875 11.531250000000002 C 6.9375 10.593750000000002 6.375 8.156250000000002 7.5625 7.093750000000003 L 7.75 6.906250000000002 L 8 6.906250000000002 C 9.625000000000002 6.906250000000002 10.8125 7.593750000000002 11.5625 8.156250000000002 C 13.75 7.343750000000002 16.25 7.343750000000002 18.4375 8.156250000000002 C 19.125 7.593750000000002 20.3125 6.906250000000002 22 6.906250000000002 L 22.25 6.906250000000002 L 22.4375 7.093750000000003 C 23.625 8.218750000000004 23.0625 10.593750000000002 22.8125 11.531250000000002 C 23.4375 12.531250000000004 23.8125 13.656250000000002 23.8125 14.781250000000002 C 23.8125 18.093750000000004 21.6875 20.28125 18 21.03125 C 18.9375 22.031250000000004 19.4375 23.53125 19.4375 24.71875 L 19.4375 27.78125 C 19.4375 28.40625 19.875000000000004 28.90625 20.500000000000004 29.03125 C 26 26.78125 30 21.34375 30 14.96875 C 30 6.71875 23.25 -0.03125 15 -0.03125 Z " fill="rgb(255,255,255)" stroke-width="2" stroke="rgba(0,0,0,0)" stroke-linejoin="miter" stroke-linecap="butt"/></svg>