<?xml version="1.0" standalone="no"?><!-- Generator: Gravit.io --><svg xmlns="http://www.w3.org/2000/svg" xmlns:xlink="http://www.w3.org/1999/xlink" style="isolation:isolate" width="30" height="30"><path d=" M 15 0.46875 C 6.75 0.46875 0 7.21875 0 15.46875 C 0 21.84375 4 27.28125 9.5625 29.46875 C 10.125 29.343749999999996 10.625 28.84375 10.625 28.21875 L 10.625 25.46875 L 9 25.46875 C 7.8125 25.46875 6.8125 24.90625 6.312500000000001 24.03125 C 6.187500000000002 23.781250000000004 6.062500000000001 23.468750000000004 5.937500000000001 23.156250000000004 C 5.687500000000001 22.46875 5.375000000000001 21.718750000000004 4.750000000000001 21.281250000000004 C 4.5 21.09375 4.375 20.71875 4.4375 20.40625 C 4.562499999999999 20.09375 4.874999999999999 19.84375 5.4375 19.90625 C 6.0625 19.96875 7 20.656250000000004 7.5625 21.40625 C 8.0625 22.03125 8.4375 22.40625 9.1875 22.40625 L 9.375 22.40625 C 9.9375 22.40625 11.3125 22.40625 11.5625 22.15625 L 11.5625 22.15625 C 11.75 21.906250000000004 11.875 21.71875 12.0625 21.53125 C 8.3125 20.78125 6.1875 18.593750000000004 6.1875 15.281250000000002 C 6.1875 14.156250000000002 6.5 13.03125 7.1875 12.031250000000002 C 6.9375 11.093750000000002 6.375 8.656250000000002 7.5625 7.593750000000003 L 7.75 7.406250000000002 L 8 7.406250000000002 C 9.625000000000002 7.406250000000002 10.8125 8.093750000000002 11.5625 8.656250000000002 C 13.75 7.843750000000002 16.25 7.843750000000002 18.4375 8.656250000000002 C 19.125 8.093750000000002 20.3125 7.406250000000002 22 7.406250000000002 L 22.25 7.406250000000002 L 22.4375 7.593750000000003 C 23.625 8.718750000000004 23.0625 11.093750000000002 22.8125 12.031250000000002 C 23.4375 13.031250000000004 23.8125 14.156250000000002 23.8125 15.281250000000002 C 23.8125 18.593750000000004 21.6875 20.78125 18 21.53125 C 18.9375 22.531250000000004 19.4375 24.03125 19.4375 25.21875 L 19.4375 28.28125 C 19.4375 28.90625 19.875000000000004 29.40625 20.500000000000004 29.53125 C 26 27.28125 30 21.84375 30 15.46875 C 30 7.21875 23.25 0.46875 15 0.46875 Z " fill="rgb(0,0,0)" stroke-width="2" stroke="rgba(0,0,0,0)" stroke-linejoin="miter" stroke-linecap="butt"/></svg>