<svg xmlns="http://www.w3.org/2000/svg" style="isolation:isolate" width="34" height="31">
  <path d="M9.966-.2c-1.214 0-2.263.664-2.87 1.635L3.23 8.257l3.32 5.748 4.792-8.224H29.42l-2.445-4.343C26.368.467 25.32-.2 24.105-.2H9.965zm2.206 7.476L7.404 15.5l3.867 6.658.904 1.566h9.656l4.84-8.224-4.84-8.224h-9.657zm11.458 0l4.792 8.224-.237.374L19.242 31.2h4.863c1.214 0 2.263-.664 2.87-1.635l7.07-12.336c.607-1.05.607-2.396 0-3.367l-3.725-6.59h-6.69zM2.304 9.823l-2.35 4.042c-.606 1.046-.606 2.317 0 3.364l7.07 12.333C7.632 30.61 8.68 31.2 9.894 31.2h7.52l3.56-5.98H11.34l-1.28-2.245-.096-.14L5.65 15.5 2.303 9.823zm14.732 1.94c2.125 0 3.795 1.644 3.795 3.737s-1.67 3.738-3.792 3.738c-2.126 0-3.796-1.645-3.796-3.738s1.67-3.738 3.797-3.738z" fill-rule="evenodd" fill="#B9B9B9" fill-opacity="100"/>
</svg>
