<svg xmlns="http://www.w3.org/2000/svg" style="isolation:isolate" width="76" height="60">
  <path d="M9.238 53.99q0 .522-.13.932-.128.41-.347.724-.22.313-.5.536-.28.222-.6.363-.31.14-.63.205-.32.064-.6.064H2.98V55.29h3.44q.293-.022.53-.12.237-.096.407-.26.17-.164.264-.395.1-.232.1-.525v-.69q-.03-.288-.12-.53-.09-.24-.25-.41-.16-.17-.39-.265-.23-.097-.52-.097H2.99q-.304 0-.463.158-.158.158-.158.457v6.264H.84v-6.264q0-.586.214-.996.213-.41.533-.662.31-.252.69-.366.37-.12.69-.12h3.45q.51 0 .92.13.41.13.724.35.31.22.53.5.22.28.37.6.14.31.21.63.07.32.07.6v.69zm9.697-.69q0 .52-.128.93-.13.41-.35.724-.22.314-.506.536-.28.223-.6.366-.31.144-.63.208-.32.065-.6.065l3.18 2.74h-2.35l-3.17-2.75h-1.1V54.6h3.45q.29-.022.53-.12.24-.095.41-.26t.27-.395q.09-.232.09-.53v-.962q0-.13-.03-.196-.03-.07-.08-.1t-.104-.04q-.057-.005-.104-.005h-5.03v6.88h-1.53V51.24q0-.158.057-.3.057-.14.16-.245.102-.105.243-.164.14-.05.307-.05h5.78q.51 0 .86.19.352.19.57.46.22.28.318.6.09.33.09.61v.98zm10.348 2.18q0 .766-.264 1.41-.27.645-.74 1.114-.47.47-1.11.73-.64.26-1.4.26h-2.06q-.76 0-1.4-.26-.65-.26-1.12-.73-.47-.47-.74-1.113-.27-.64-.27-1.41v-1.6q0-.76.26-1.41.27-.64.74-1.11.47-.46 1.11-.73.645-.26 1.4-.26h2.063q.757 0 1.4.27.64.27 1.11.73.47.47.73 1.12.263.65.263 1.41v1.6zm-1.523-1.607q0-.45-.144-.817-.143-.367-.404-.627-.26-.27-.627-.41-.366-.15-.806-.15h-2.07q-.45 0-.82.14-.37.14-.63.4t-.41.62q-.15.37-.15.82v1.6q0 .45.14.82.143.365.406.63.264.26.63.4.366.144.812.144h2.05q.443 0 .81-.144.364-.14.63-.4.262-.26.405-.625.146-.37.146-.82v-1.6zm10.095 2.865q0 .457-.158.85-.158.392-.442.68-.284.287-.677.448-.393.16-.855.16H30.14v-1.522h5.583q.28 0 .44-.162.157-.16.157-.454v-6.263h1.535v6.263zm8.655-1.295H41.7v-1.535h4.81v1.535zm.685 3.434H41.7q-.317 0-.692-.11-.375-.113-.695-.368-.32-.26-.533-.67-.214-.41-.214-1v-5.49q0-.16.06-.3.058-.14.16-.25.103-.11.243-.17.14-.06.3-.06h6.86v1.52h-6.1v4.74q0 .3.15.45.16.16.46.16h5.49v1.52zm8.994 0h-5.5q-.21 0-.46-.05t-.48-.155q-.24-.106-.46-.273-.22-.17-.39-.41-.17-.24-.27-.55-.1-.32-.1-.71v-4.12q0-.21.05-.46t.15-.48q.1-.24.27-.46.17-.22.405-.39.24-.17.55-.27.31-.1.702-.1h5.492V52h-5.48q-.3 0-.456.158-.16.158-.16.47v4.112q0 .293.16.454.165.162.458.162h5.5v1.523zm9.03-6.88h-3.36v6.88h-1.52v-6.88h-3.36v-1.522h8.24v1.523zm9.19 4.407q0 .45-.12.812-.12.36-.3.636-.19.275-.44.468-.25.194-.52.317t-.55.18q-.28.06-.53.06h-5.87v-1.523h5.87q.44 0 .68-.258.24-.258.24-.692 0-.21-.06-.386-.06-.176-.18-.305-.12-.13-.29-.2t-.385-.07h-3.51q-.37 0-.795-.13-.43-.133-.792-.426-.363-.293-.61-.768-.24-.48-.24-1.16 0-.69.247-1.16.24-.47.61-.77.364-.3.79-.43.43-.13.8-.13h5.183v1.52h-5.18q-.435 0-.68.26-.24.26-.24.69 0 .44.245.69.243.25.677.25h3.51q.246.01.52.07.276.06.55.19.27.13.515.325t.436.472q.19.27.31.63.11.355.11.806z" fill-rule="evenodd" fill="#58585A" stroke="rgba(0,0,0,0)" stroke-linecap="square"/>
  <path d="M29.962 5c-1.39 0-2.587.76-3.28 1.875l-4.42 7.82 3.795 6.59 5.477-9.428h20.658L49.4 6.875C48.706 5.76 47.508 5 46.12 5H29.962zm2.52 8.57L27.032 23l4.42 7.634 1.03 1.795H43.52L49.05 23l-5.53-9.43H32.483zm13.096 0L51.054 23l-.27.43L40.56 41h5.558c1.388 0 2.586-.76 3.28-1.875l8.08-14.143c.694-1.2.694-2.743 0-3.857L53.22 13.57h-7.644zm-24.373 2.92l-2.684 4.635c-.69 1.2-.69 2.657 0 3.857l8.08 14.143c.7 1.2 1.9 1.875 3.28 1.875h8.6l4.07-6.857H31.54l-1.47-2.573-.108-.16L25.027 23l-3.822-6.51zm16.836 2.224c2.43 0 4.34 1.886 4.34 4.286 0 2.4-1.91 4.286-4.33 4.286-2.43 0-4.33-1.886-4.33-4.286 0-2.4 1.91-4.286 4.34-4.286z" fill-rule="evenodd" fill="#B9B9B9" stroke-width="2" stroke="rgba(0,0,0,0)"/>
</svg>
