<?xml version="1.0" standalone="no"?><!-- Generator: Gravit.io --><svg xmlns="http://www.w3.org/2000/svg" xmlns:xlink="http://www.w3.org/1999/xlink" style="isolation:isolate" width="30" height="30"><path d=" M 25.017099863201096 26.42147806004619 L 25.017099863201096 18.65242494226328 L 28.071819425444595 18.65242494226328 L 28.071819425444595 29 L 0.5000000000000036 29 L 0.5000000000000036 18.65242494226328 L 3.5547195622435055 18.65242494226328 L 3.5547195622435055 26.42147806004619 L 25.017099863201096 26.42147806004619 Z " fill="rgb(0,0,0)" stroke-width="0.25" stroke="rgba(0,0,0,0)" stroke-linejoin="miter" stroke-linecap="butt"/><path d=" M 6.926812585499318 17.915704387990765 L 21.922708618331054 20.56120092378753 L 22.557455540355672 18.016166281755204 L 7.561559507523938 15.370669745958436 L 6.926812585499318 17.915704387990765 Z  M 8.910396716826266 11.88799076212471 L 22.79548563611491 17.34642032332564 L 24.064979480164162 15.00230946882217 L 10.179890560875517 9.510392609699771 L 8.910396716826266 11.88799076212471 Z  M 12.758549931600548 6.128175519630487 L 24.541039671682626 14.39953810623557 L 26.484952120383042 12.423787528868361 L 14.702462380300958 4.152424942263281 L 12.758549931600548 6.128175519630487 Z  M 20.375512995896035 0 L 17.915868673050618 1.540415704387991 L 27.040355677154587 11.921478060046189 L 29.5 10.381062355658198 L 20.375512995896035 0 Z  M 6.609439124487007 23.8094688221709 L 21.922708618331054 23.8094688221709 L 21.922708618331054 21.23094688221709 L 6.609439124487007 21.23094688221709 L 6.609439124487007 23.8094688221709 Z " fill-rule="evenodd" fill="rgb(23,23,23)" stroke-width="0.25" stroke="rgba(0,0,0,0)" stroke-linejoin="miter" stroke-linecap="butt"/></svg>