<?xml version="1.0" standalone="no"?><!-- Generator: Gravit.io --><svg xmlns="http://www.w3.org/2000/svg" xmlns:xlink="http://www.w3.org/1999/xlink" style="isolation:isolate" width="500" height="174"><path d=" M 348.56048941435233 84.67821567778262 L 404.24814407478675 107.09051537462105 L 404.24814407478675 107.09051537462105 L 407.0085235083859 48 L 395.04687929612305 94.26678215677785 L 348.56048941435233 84.67821567778262 Z " fill="rgb(157,159,162)" stroke-width="0.17962189590911132" stroke="rgba(0,0,0,0)" stroke-linejoin="miter" stroke-linecap="butt"/><path d=" M 404.24814407478675 107.09051537462105 L 453.45490789111886 126.93027284538763 L 424.49092658784696 107.01255954958859 L 461.1759692053888 84.67821567778262 L 404.24814407478675 107.09051537462105 L 404.24814407478675 107.09051537462105 Z " fill="rgb(255,255,255)" stroke-width="0.17962189590911132" stroke="rgba(0,0,0,0)" stroke-linejoin="miter" stroke-linecap="butt"/><path d=" M 78.123315919714 109.15634473798181 L 82.0438548254055 109.15634473798181 L 82.0438548254055 123.92897358163705 C 82.0438548254055 127.90472065829366 81.96384382733015 130.39930705933304 81.8038218311795 131.45171069727152 C 81.56378883695345 133.12776093546987 81.0437173494638 134.41403204850585 80.2436073687104 135.31052403637935 C 79.44349738795705 136.2070160242529 78.243332416827 136.83066262451277 76.68311795435795 137.18146383715893 C 74.8028594995875 137.61022087483755 71.4023920813857 137.844088349935 66.40170470167715 137.844088349935 C 62.76120428924929 137.844088349935 60.080835853725546 137.5712429623213 58.2805883970305 137.0645300996102 C 56.08028594995869 136.44088349935035 54.7601044817157 134.9597228237332 54.360049491339 132.62104807275878 C 54.16002199615065 131.45171069727152 54.04000549903765 129.65872672152446 54 127.24209614551754 L 57.6805059114655 127.24209614551754 C 57.72051141050315 127.70983109571247 57.72051141050315 128.02165439584238 57.72051141050315 128.1775660459073 C 57.760516909540854 130.32135123430058 57.9205389056915 131.68557817236896 58.24058289799285 132.34820268514508 C 58.640637888369554 133.16673884798618 59.48075336816055 133.71242962321352 60.6809183392906 133.98527501082722 C 61.881083310420706 134.25812039844092 64.04138025845475 134.4140320485059 67.20181468243055 134.4140320485059 C 69.44212262854 134.4140320485059 71.5624140775364 134.33607622347338 73.52268353038215 134.18016457340846 C 74.4828155072862 134.10220874837594 75.16290899092655 133.98527501082722 75.64297497937855 133.8293633607623 C 76.1230409678306 133.67345171069732 76.52309595820725 133.40060632308362 76.8831454495463 133.04980511043746 C 77.44322243607365 132.50411433521012 77.763266428375 131.80251190991774 77.883282925488 130.86704200952798 C 78.003299422601 129.93157210913822 78.08331042067636 127.63187527068001 78.08331042067636 123.88999566912085 L 78.08331042067636 109.15634473798181 L 78.123315919714 109.15634473798181 Z " fill="rgb(157,159,162)" stroke-width="0.17962189590911132" stroke="rgba(0,0,0,0)" stroke-linejoin="miter" stroke-linecap="butt"/><path d=" M 97.80602144624686 117.6145517540061 C 101.00646136926031 117.6145517540061 103.36678581248276 117.69250757903856 104.92700027495181 117.8873971416198 C 106.44720923838315 118.08228670420098 107.6473742095132 118.43308791684714 108.48748968930425 118.93980077955834 C 109.76766565850966 119.68038111736686 110.687792136376 120.77176266782166 111.28787462194106 122.1359896058901 C 111.8479516084684 123.53919445647475 112.12799010173211 125.41013425725427 112.12799010173211 127.78778692074499 C 112.12799010173211 130.43828497184936 111.76794061039311 132.46513642269392 111.0878471267527 133.8293633607623 C 110.56777563926306 134.88176699870084 109.92768765466036 135.70030316154188 109.08757217486931 136.28497184928548 C 108.24745669507826 136.86964053702908 107.1673082210612 137.29839757470776 105.80712125378045 137.5712429623214 C 104.48693978553746 137.8440883499351 102.28663733846565 137.96102208748383 99.24621941160285 137.96102208748383 C 96.3658234808907 137.96102208748383 94.16552103381895 137.8830662624513 92.68531756942525 137.68817669987013 C 91.2051141050315 137.4932871372889 90.00494913390145 137.14248592464273 89.0848226560351 136.67475097444785 C 87.7246356887544 135.97314854915552 86.76450371185035 134.92074491121699 86.1644212262853 133.51754006063234 C 85.5643387407203 132.11433521004764 85.2843002474566 130.20441749675186 85.2843002474566 127.67085318319621 C 85.2843002474566 124.86444348202687 85.72436073687095 122.75963620614985 86.564476216662 121.31745344304895 C 87.40459169645305 119.83629276743184 88.6047566675831 118.86184495452582 90.1249656310145 118.35513209181468 C 91.6451745944459 117.88739714161974 94.20552653285665 117.6145517540061 97.80602144624686 117.6145517540061 Z  M 98.32609293373656 120.38198354265919 C 96.20580148474016 120.38198354265919 94.5655760241957 120.4599393676917 93.48542755017866 120.61585101775663 C 92.4052790761616 120.7717626678216 91.5251580973329 121.0446080554353 90.8850701127302 121.43438718059772 C 90.1249656310145 121.9021221307926 89.56488864448716 122.64270246860119 89.2448446521858 123.69510610653967 C 88.8847951608468 124.70853183196195 88.72477316469616 126.11173668254659 88.72477316469616 127.90472065829366 C 88.72477316469616 129.93157210913822 88.96480615892216 131.41273278475532 89.40486664833651 132.4261585101776 C 89.84492713775086 133.43958423559988 90.64503711850426 134.1411866608922 91.76519109155896 134.56994369857082 C 93.00536156172666 135.03767864876576 95.40569150398676 135.27154612386315 98.96618091833926 135.27154612386315 C 101.28649986252401 135.27154612386315 103.00673632114376 135.19359029883069 104.08688479516081 135.0376786487657 C 105.16703326917781 134.88176699870073 106.0471542480065 134.56994369857082 106.68724223260926 134.10220874837594 C 107.40734121528726 133.5954958856648 107.92741270277696 132.89389346037248 108.20745119604061 131.91944564746646 C 108.52749518834196 130.94499783456044 108.68751718449266 129.580770896492 108.68751718449266 127.78778692074488 C 108.68751718449266 125.68297964486791 108.44748419026666 124.16284105673455 107.96741820181467 123.18839324382853 C 107.40734121528732 122.09701169337379 106.52722023645856 121.35643135556515 105.24704426725322 121.00563014291899 C 103.96686829804781 120.53789519272416 101.68655485290071 120.38198354265919 98.32609293373656 120.38198354265919 Z " fill-rule="evenodd" fill="rgb(157,159,162)" stroke-width="0.17962189590911132" stroke="rgba(0,0,0,0)" stroke-linejoin="miter" stroke-linecap="butt"/><path d=" M 115.36843552378332 109.15634473798181 L 118.60888094583447 109.15634473798181 L 118.60888094583447 120.81074058033781 L 118.84891394006047 120.81074058033781 C 119.52900742370088 119.56344737981809 120.60915589771787 118.70593330446084 122.04935386307392 118.27717626678216 C 123.48955182843002 117.84841922910348 125.88988177069012 117.61455175400604 129.21033819081657 117.61455175400604 C 132.01072312345337 117.61455175400604 134.13101457244977 117.77046340407102 135.61121803684352 118.08228670420098 C 137.05141600219957 118.39411000433088 138.17156997525427 118.97877869207448 138.97167995600768 119.75833694239927 C 139.65177343964803 120.45993936769159 140.13183942810002 121.31745344304895 140.33186692328837 122.33087916847117 C 140.57189991751437 123.34430489389345 140.69191641462737 125.0203551320918 140.69191641462737 127.39800779558252 L 140.69191641462737 137.72715461238633 L 137.45147099257622 137.72715461238633 L 137.45147099257622 128.37245560848854 C 137.45147099257622 126.30662624512777 137.37145999450087 124.90342139454307 137.25144349738787 124.08488523170203 C 137.09142150123722 123.30532698137719 136.81138300797352 122.60372455608487 136.33131701952152 122.05803378085747 C 135.81124553203188 121.43438718059761 134.97113005224082 121.00563014291899 133.85097607918607 120.73278475530529 C 132.73082210613137 120.45993936769159 131.05059114654927 120.34300563014293 128.85028869947752 120.34300563014293 C 126.36994775914206 120.34300563014293 124.44968380533402 120.49891728020785 123.04949133901562 120.84971849285401 C 121.64929887269722 121.20051970550017 120.60915589771781 121.74621048072751 119.92906241407746 122.52576873105235 C 119.40899092658782 123.11043741879595 119.04894143524876 123.77306193157207 118.88891943909812 124.4746643568644 C 118.72889744294741 125.17626678215672 118.64888644487206 126.50151580770896 118.64888644487206 128.37245560848848 L 118.64888644487206 137.72715461238627 L 115.40844102282091 137.72715461238627 L 115.40844102282091 109.15634473798181 L 115.36843552378332 109.15634473798181 Z " fill="rgb(157,159,162)" stroke-width="0.17962189590911132" stroke="rgba(0,0,0,0)" stroke-linejoin="miter" stroke-linecap="butt"/><path d=" M 144.01237283475382 117.84841922910354 L 147.25281825680497 117.84841922910354 L 147.25281825680497 120.84971849285412 L 147.49285125103103 120.84971849285412 C 148.17294473467138 119.5634473798182 149.21308770965072 118.70593330446084 150.65328567500677 118.27717626678222 C 152.05347814132523 117.84841922910354 154.45380808358533 117.6145517540061 157.81427000274942 117.6145517540061 C 160.73467143249923 117.6145517540061 162.89496838053333 117.77046340407102 164.29516084685173 118.08228670420098 C 165.69535331317013 118.39411000433088 166.81550728622483 118.97877869207454 167.61561726697818 119.79731485491558 C 168.25570525158082 120.4599393676917 168.69576574099523 121.27847553053275 168.93579873522123 122.25292334343877 C 169.17583172944722 123.22737115634473 169.29584822656028 124.66955391944569 169.29584822656028 126.50151580770896 L 169.29584822656028 137.72715461238633 L 166.05540280450919 137.72715461238633 L 166.05540280450919 127.82676483326114 C 166.05540280450919 126.07275877003033 165.97539180643383 124.78648765699441 165.8153698102832 124.00692940666957 C 165.65534781413248 123.22737115634473 165.3753093208689 122.56474664356867 164.89524333241684 122.05803378085753 C 164.33516634588943 121.43438718059767 163.53505636513609 121.00563014291899 162.37489689304374 120.73278475530535 C 161.25474291998904 120.45993936769165 159.574511960407 120.34300563014293 157.3342040142976 120.34300563014293 C 154.8538630739621 120.34300563014293 152.8935936211164 120.53789519272416 151.493401154798 120.88869640537033 C 150.0932086884796 121.23949761801649 149.0530657135002 121.82416630576009 148.37297222985984 122.64270246860113 C 147.89290624140784 123.22737115634473 147.5728622491065 123.88999566912085 147.41284025295585 124.63057600692943 C 147.25281825680514 125.37115634473801 147.1728072587298 126.65742745777399 147.1728072587298 128.52836725855352 L 147.1728072587298 137.72715461238633 L 143.93236183667864 137.72715461238633 L 143.93236183667864 117.84841922910354 L 144.01237283475382 117.84841922910354 Z " fill="rgb(157,159,162)" stroke-width="0.17962189590911132" stroke="rgba(0,0,0,0)" stroke-linejoin="miter" stroke-linecap="butt"/><path d=" M 213.9419851525982 127.94369857080991 L 217.7425075611767 127.94369857080991 C 217.6224910640637 130.55521870939808 217.5024745669507 132.30922477262888 217.26244157272464 133.3226504980511 C 216.7823755842726 135.42745777392813 215.34217761891654 136.7527067994803 212.90184217761873 137.2204417496752 C 210.94157272477293 137.6102208748376 207.42108880945813 137.8051104374188 202.34039043167422 137.8051104374188 C 195.77948858949657 137.8051104374188 191.33887819631542 137.57124296232135 189.05856475116832 137.14248592464273 C 186.85826230409657 136.71372888696405 185.37805883970282 135.58336942399305 184.61795435798717 133.79038544824598 C 183.85784987627142 131.99740147249892 183.49780038493248 128.68427890861844 183.49780038493248 123.88999566912085 C 183.49780038493248 119.32957990472065 183.77783887819618 116.01645734084016 184.33791586472347 113.9506279774794 C 185.01800934836388 111.49501948895627 186.77825130602122 110.09181463837157 189.65864723673337 109.66305760069295 C 192.41902667033253 109.27327847553053 196.45958207313697 109.03941100043309 201.74030794610923 109.03941100043309 C 206.82100632389313 109.03941100043309 210.46150673632093 109.27327847553053 212.62180368435503 109.77999133824162 C 213.70195215837208 110.01385881333911 214.66208413527607 110.48159376353394 215.46219411602948 111.18319618882632 C 216.26230409678283 111.88479861411864 216.74237008523488 112.66435686444342 216.98240307946082 113.56084885231704 C 217.18243057464917 114.41836292767434 217.30244707176217 116.09441316587268 217.34245257079988 118.5500216543958 L 213.70195215837208 118.5500216543958 C 213.70195215837208 118.04330879168472 213.6619466593345 117.73148549155476 213.6619466593345 117.57557384148978 C 213.6619466593345 116.21134690342134 213.5419301622215 115.23689909051532 213.2618916689578 114.65223040277172 C 212.98185317569408 114.06756171502812 212.46178168820444 113.63880467734944 211.66167170745103 113.32698137721954 C 210.22147374209504 112.74231268947594 206.8210063238932 112.46946730186224 201.50027495188323 112.46946730186224 C 197.65974704426714 112.46946730186224 194.73934561451728 112.58640103941096 192.81908166070917 112.78129060199214 C 190.89881770690113 112.97618016457338 189.61864173769573 113.32698137721954 189.01855925213067 113.75573841489816 C 188.45848226560327 114.18449545257684 188.05842727522662 115.1199653529666 187.77838878196303 116.5231702035513 C 187.49835028869933 117.92637505413595 187.37833379158633 119.87527067994799 187.37833379158633 122.33087916847117 C 187.37833379158633 123.50021654395837 187.41833929062398 125.02035513209174 187.53835578773703 126.89129493287132 C 187.61836678581238 128.7622347336509 187.73838328292538 130.00952793417062 187.85839978003838 130.71113035946294 C 188.0184217761891 131.80251190991763 188.37847126752803 132.62104807275873 188.93854825405543 133.12776093546987 C 189.49862524058284 133.634473798181 190.37874621941143 133.9073191857947 191.61891668957924 134.02425292334337 C 193.819219136651 134.25812039844087 197.01965905966443 134.37505413598953 201.1402254605443 134.37505413598953 C 202.4204014297497 134.37505413598953 204.06062689029403 134.33607622347333 206.1009073412152 134.25812039844087 C 208.14118779213624 134.18016457340835 209.4613692603794 134.1022087483759 209.98144074786904 134.02425292334337 C 211.0615892218861 133.86834127327845 211.8616992026395 133.6734517106972 212.4217761891668 133.4006063230835 C 212.94184767665644 133.1277609354698 213.3018971679955 132.6990038977912 213.50192466318384 132.11433521004759 C 213.78196315644755 131.60762234733656 213.90197965356055 130.24339540926812 213.9419851525982 127.94369857080991 Z " fill="rgb(255,255,255)" stroke-width="0.17962189590911132" stroke="rgba(0,0,0,0)" stroke-linejoin="miter" stroke-linecap="butt"/><path d=" M 224.06337640912835 123.81203984408839 L 220.70291448996414 123.81203984408839 C 220.66290899092655 123.46123863144223 220.66290899092655 123.14941533131227 220.66290899092655 122.95452576873103 C 220.66290899092655 120.88869640537033 221.4630189716799 119.44651364226937 223.06323893318665 118.70593330446084 C 224.66345889469335 117.96535296665226 227.6638713225185 117.57557384148984 232.10448171569965 117.57557384148984 C 235.5849601319768 117.57557384148984 238.0653010723123 117.73148549155482 239.58551003574365 118.04330879168472 C 241.10571899917505 118.35513209181468 242.3058839703051 118.93980077955828 243.1459994500962 119.79731485491558 C 243.8660984327742 120.4989172802079 244.34616442122626 121.31745344304895 244.54619191641456 122.25292334343877 C 244.7462194116029 123.18839324382853 244.8662359087159 124.86444348202687 244.8662359087159 127.24209614551754 L 244.8662359087159 137.72715461238633 L 241.66579598570246 137.72715461238633 L 241.7458069837778 135.38847986141187 L 241.5857849876271 135.38847986141187 C 240.7856750068737 136.4798614118666 239.82554302996965 137.18146383715893 238.70538905691495 137.49328713728883 C 237.58523508386025 137.8051104374188 235.46494363486386 137.96102208748377 232.34451470992565 137.96102208748377 C 228.7840252955731 137.96102208748377 226.30368435523775 137.88306626245125 224.90349188891935 137.72715461238633 C 223.50329942260095 137.57124296232135 222.4631564476216 137.2204417496752 221.7430574649435 136.6747509744478 C 221.0229584822655 136.1680381117367 220.54289249381344 135.58336942399305 220.26285400054974 134.88176699870073 C 219.9828155072861 134.1801645734084 219.8627990101731 133.20571676050238 219.8627990101731 131.95842355998266 C 219.8627990101731 130.43828497184924 220.06282650536144 129.22996968384578 220.50288699477574 128.41143352100474 C 220.94294748419003 127.59289735816364 221.62304096783043 126.96925075790378 222.62317844377213 126.57947163274142 C 223.70332691778918 126.11173668254648 226.26367885619993 125.8778692074491 230.26422875996678 125.8778692074491 C 234.46480615892193 125.8778692074491 237.18518009348338 125.99480294499776 238.46535606268878 126.22867042009526 C 239.7455320318942 126.4625378951927 240.74566950783588 127.0472065829363 241.46576849051394 127.98267648332606 L 241.74580698377764 127.98267648332606 L 241.74580698377764 125.83889129493284 C 241.74580698377764 124.08488523170197 241.4257629914763 122.83759203118225 240.78567500687353 122.05803378085747 C 240.22559802034613 121.35643135556515 239.34547704151748 120.92767431788647 238.18531756942508 120.65482893027277 C 237.02515809733268 120.42096145517533 235.10489414352463 120.30402771762661 232.46453120703853 120.30402771762661 C 228.98405279076138 120.30402771762661 226.74374484465199 120.49891728020779 225.70360186967253 120.88869640537021 C 224.66345889469318 121.27847553053263 224.18339290624118 122.13598960588993 224.18339290624118 123.50021654395837 C 224.06337640912835 123.61715028150715 224.06337640912835 123.69510610653967 224.06337640912835 123.81203984408839 Z  M 232.304509210888 128.64530099610224 C 229.6641462744019 128.64530099610224 227.7838878196315 128.6842789086185 226.74374484465204 128.7622347336509 C 225.663596370635 128.84019055868342 224.943497387957 129.03508012126466 224.50343689854265 129.26894759636204 C 223.66332141875165 129.77566045907318 223.22326092933724 130.67215244694674 223.22326092933724 131.95842355998266 C 223.22326092933724 133.24469467301859 223.74333241682695 134.14118666089215 224.74346989276864 134.60892161108703 C 225.543579873522 134.9987007362494 228.30395930712115 135.19359029883063 232.9846026945283 135.19359029883063 C 236.42507561176774 135.19359029883063 238.66538355787725 134.9597228237332 239.78553753093195 134.5309657860545 C 240.9056915039866 134.10220874837583 241.4257629914763 133.20571676050233 241.4257629914763 131.88046773495014 C 241.4257629914763 130.59419662191422 240.82568050591124 129.73668254655692 239.5855100357436 129.26894759636198 C 238.3453395655759 128.87916847119968 235.9450096233158 128.64530099610224 232.304509210888 128.64530099610224 Z " fill-rule="evenodd" fill="rgb(255,255,255)" stroke-width="0.17962189590911132" stroke="rgba(0,0,0,0)" stroke-linejoin="miter" stroke-linecap="butt"/><path d=" M 247.6666208413527 130.78908618449546 L 251.10709375859216 130.78908618449546 C 251.10709375859216 131.06193157210916 251.10709375859216 131.2568211346904 251.10709375859216 131.37375487223906 C 251.10709375859216 132.4651364226938 251.22711025570516 133.20571676050244 251.4671432499312 133.67345171069726 C 251.70717624415715 134.1411866608922 252.1872422326092 134.49198787353836 252.8673357162496 134.7258553486358 C 253.78746219411596 135.0376786487657 256.4678306296397 135.19359029883069 260.90844102282085 135.19359029883069 C 263.66882045642 135.19359029883069 265.5890844102281 135.11563447379822 266.66923288424516 134.9987007362495 C 267.7493813582622 134.88176699870078 268.50948583997786 134.64789952360334 268.98955182842997 134.29709831095718 C 269.62963981303255 133.8293633607623 269.94968380533396 133.08878302295372 269.94968380533396 132.1143352100477 C 269.94968380533396 130.90601992204424 269.5496288149574 130.08748375920314 268.7895243332416 129.65872672152452 C 268.02941985152586 129.2299696838459 266.58922188616987 128.9961022087484 264.5489414352488 129.03508012126466 C 263.9088534506461 129.03508012126466 260.7884245257079 128.9961022087484 255.22766015947207 128.918146383716 C 253.78746219411602 128.87916847119973 252.62730272202361 128.762234733651 251.74718174319491 128.56734517106983 C 250.86706076436616 128.3724556084886 250.14696178168816 128.0606323083587 249.58688479516076 127.63187527068001 C 248.5067363211437 126.81333910783897 247.9466593346164 125.41013425725427 247.9466593346164 123.46123863144223 C 247.9466593346164 121.39540926808152 248.62675281825676 119.91424859246436 249.98693978553746 118.97877869207454 C 250.70703876821545 118.47206582936346 251.86719824030786 118.12126461671724 253.50742370085226 117.92637505413606 C 255.14764916139666 117.69250757903856 257.5079736046191 117.61455175400616 260.5483915314818 117.61455175400616 C 263.9888644487213 117.61455175400616 266.50921088809446 117.80944131658734 268.10943084960127 118.1602425292335 C 269.7496563101456 118.51104374187966 270.90981578223796 119.17366825465578 271.6699202639537 120.07016024252928 C 272.02996975529277 120.49891728020796 272.27000274951877 121.00563014291905 272.3900192466317 121.47336509311398 C 272.51003574374477 121.98007795582507 272.5500412427824 122.79861411866617 272.5500412427824 123.96795149415337 L 269.14957382458067 123.96795149415337 C 269.14957382458067 122.7596362061499 268.9095408303547 121.94110004330881 268.50948583997797 121.59029883066265 C 268.0694253505636 121.16154179298402 267.1893043717349 120.84971849285412 265.94913390156717 120.65482893027288 C 264.66895793236176 120.4599393676917 262.82870497662907 120.34300563014298 260.3883695353312 120.34300563014298 C 255.9877646411877 120.34300563014298 253.3073962056639 120.65482893027288 252.3472642287599 121.23949761801649 C 251.66717074511956 121.66825465569516 251.30712125378056 122.44781290602 251.30712125378056 123.50021654395849 C 251.30712125378056 124.59159809441317 251.70717624415727 125.29320051970555 252.50728622491062 125.64400173235171 C 253.30739620566402 125.99480294499787 254.94762166620842 126.1507145950628 257.3479516084685 126.11173668254659 C 259.7482815507286 126.07275877003039 262.8687104756667 126.11173668254659 266.7092383832829 126.26764833261157 C 269.0295573274676 126.34560415764409 270.7097882870497 126.85231702035517 271.7099257629915 127.74880900822868 C 272.75006873797076 128.64530099610224 273.2301347264229 130.08748375920314 273.2301347264229 132.07535729753144 C 273.2301347264229 133.24469467301864 273.07011273027217 134.21914248592466 272.7100632389331 134.95972282373324 C 272.3500137475942 135.70030316154183 271.78993676106677 136.32394976180169 270.9498212812757 136.79168471199657 C 270.2297222985977 137.22044174967525 269.109568325543 137.4932871372889 267.5093483640363 137.68817669987013 C 265.9091284025295 137.84408834993505 263.6288149573825 137.96102208748383 260.6284025295573 137.96102208748383 C 257.2679406103931 137.96102208748383 254.74759417102007 137.8440883499351 253.14737420951332 137.64919878735392 C 251.50714874896892 137.4543092247727 250.3469892768765 137.10350801212653 249.58688479516076 136.59679514941539 C 248.82678031344506 136.09008228670425 248.2667033269177 135.50541359896064 247.9466593346164 134.76483326115206 C 247.62661534231506 134.06323083585974 247.46659334616436 133.04980511043746 247.46659334616436 131.80251190991774 C 247.6666208413527 131.68557817236902 247.6666208413527 131.3347769597228 247.6666208413527 130.78908618449546 Z " fill="rgb(255,255,255)" stroke-width="0.17962189590911132" stroke="rgba(0,0,0,0)" stroke-linejoin="miter" stroke-linecap="butt"/><path d=" M 279.63101457244966 112.93720225205718 L 282.8714599945008 112.93720225205718 L 282.8714599945008 117.84841922910354 L 297.15342315094847 117.84841922910354 L 297.15342315094847 120.53789519272416 L 282.8714599945008 120.53789519272416 L 282.8714599945008 129.15201385881338 C 282.91146549353846 131.0229536595929 282.9514709925761 132.19229103508016 283.0314819906515 132.62104807275878 C 283.1114929887268 133.04980511043746 283.31152048391516 133.43958423559988 283.6715699752542 133.8683412732785 C 284.0716249656308 134.37505413598964 284.67170745119586 134.6868774361196 285.47181743194926 134.92074491121704 C 286.27192741270267 135.11563447379822 287.432086884795 135.23256821134694 288.99230134726406 135.23256821134694 C 290.43249931262005 135.23256821134694 291.47264228759946 135.15461238631448 292.1527357712399 134.92074491121704 C 292.7928237558425 134.72585534863586 293.31289524333226 134.3750541359897 293.71295023370897 133.8683412732785 C 293.95298322793496 133.51754006063234 294.11300522408567 133.08878302295372 294.1930162221611 132.58207016024258 C 294.2730272202364 132.0753572975315 294.313032719274 131.2178432221742 294.313032719274 130.00952793417068 L 294.313032719274 128.76223473365096 L 297.5134726422875 128.76223473365096 L 297.5134726422875 130.00952793417068 C 297.5134726422875 131.5296665223041 297.4334616442121 132.6990038977913 297.2734396480615 133.47856214811614 C 297.1134176519108 134.25812039844092 296.8333791586472 134.95972282373324 296.4333241682705 135.54439151147685 C 295.83324168270553 136.4019055868342 294.9531207038767 137.025552187094 293.7529557327467 137.41533131225643 C 292.5527907616166 137.8051104374188 290.9125653010723 138.00000000000003 288.7522683530382 138.00000000000003 C 286.5519659059664 138.00000000000003 284.8317294473467 137.84408834993505 283.5915589771789 137.4932871372889 C 282.35138850701117 137.14248592464273 281.4312620291448 136.55781723689913 280.83117954357976 135.77825898657434 C 280.3911190541654 135.19359029883069 280.071075061864 134.53096578605457 279.9110530657134 133.75140753572978 C 279.7510310695627 132.97184928540494 279.6710200714874 131.80251190991774 279.6710200714874 130.24339540926812 L 279.6710200714874 120.57687310524042 L 274.67033269177887 120.57687310524042 L 274.67033269177887 117.8873971416198 L 279.6710200714874 117.8873971416198 L 279.6710200714874 112.93720225205718 L 279.63101457244966 112.93720225205718 Z " fill="rgb(255,255,255)" stroke-width="0.17962189590911132" stroke="rgba(0,0,0,0)" stroke-linejoin="miter" stroke-linecap="butt"/><path d=" M 299.79378608743457 117.84841922910354 L 303.0342315094857 117.84841922910354 L 303.0342315094857 120.53789519272416 L 303.2342590046741 120.53789519272416 C 303.7543304921637 119.6414032048506 304.5144349738795 118.93980077955828 305.5145724498211 118.43308791684714 C 306.11465493538617 118.12126461671724 306.9547704151772 117.92637505413606 307.95490789111886 117.80944131658728 C 308.9550453670606 117.69250757903856 310.475254330492 117.6145517540061 312.4755292823754 117.6145517540061 C 314.4758042342588 117.6145517540061 315.95600769865257 117.73148549155482 316.9561451745943 117.926375054136 C 317.95628265053597 118.16024252923344 318.796398130327 118.55002165439586 319.47649161396737 119.0957124296232 C 320.8366785812482 120.26504980511046 321.5567775639262 122.13598960588999 321.5567775639262 124.70853183196189 L 321.5567775639262 126.77436119532265 L 318.2363211437997 126.77436119532265 L 318.2363211437997 125.3321784322217 C 318.2363211437997 124.24079688176701 318.1563101457243 123.38328280640965 317.99628814957373 122.83759203118231 C 317.836266153423 122.25292334343871 317.596233159197 121.82416630576003 317.1961781688203 121.43438718059761 C 316.39606818806703 120.69380684278909 314.6758317294473 120.34300563014293 312.1154797910365 120.34300563014293 C 308.2349463843826 120.34300563014293 305.7546054440471 120.84971849285401 304.6344514709924 121.82416630576003 C 303.55430299697537 122.79861411866605 302.9942260104481 125.059333044608 302.9942260104481 128.52836725855346 L 302.9942260104481 137.68817669987007 L 299.7537805883969 137.68817669987007 L 299.7537805883969 117.84841922910354 L 299.79378608743457 117.84841922910354 Z " fill="rgb(255,255,255)" stroke-width="0.17962189590911132" stroke="rgba(0,0,0,0)" stroke-linejoin="miter" stroke-linecap="butt"/><path d=" M 323.8370910090732 109.15634473798181 L 327.0775364311244 109.15634473798181 L 327.0775364311244 112.89822433954092 L 323.8370910090732 112.89822433954092 L 323.8370910090732 109.15634473798181 Z  M 323.8370910090732 117.84841922910354 L 327.0775364311244 117.84841922910354 L 327.0775364311244 137.72715461238633 L 323.8370910090732 137.72715461238633 L 323.8370910090732 117.84841922910354 Z " fill-rule="evenodd" fill="rgb(255,255,255)" stroke-width="0.17962189590911132" stroke="rgba(0,0,0,0)" stroke-linejoin="miter" stroke-linecap="butt"/><path d=" M 330.9180643387406 109.15634473798181 L 334.15850976079173 109.15634473798181 L 334.15850976079173 137.72715461238633 L 330.9180643387406 137.72715461238633 L 330.9180643387406 109.15634473798181 Z " fill="rgb(255,255,255)" stroke-width="0.17962189590911132" stroke="rgba(0,0,0,0)" stroke-linejoin="miter" stroke-linecap="butt"/><path d=" M 337.9590321693702 109.15634473798181 L 341.1994775914213 109.15634473798181 L 341.1994775914213 137.72715461238633 L 337.9590321693702 137.72715461238633 L 337.9590321693702 109.15634473798181 Z " fill="rgb(255,255,255)" stroke-width="0.17962189590911132" stroke="rgba(0,0,0,0)" stroke-linejoin="miter" stroke-linecap="butt"/><path d=" M 356.96164421226274 117.6145517540061 C 360.16208413527613 117.6145517540061 362.5224085784986 117.69250757903856 364.08262304096763 117.8873971416198 C 365.60283200439903 118.08228670420098 366.802996975529 118.43308791684714 367.6431124553202 118.93980077955834 C 368.9232884245256 119.68038111736686 369.84341490239194 120.77176266782166 370.443497387957 122.1359896058901 C 371.0035743744844 123.53919445647475 371.28361286774793 125.41013425725427 371.28361286774793 127.78778692074499 C 371.28361286774793 130.43828497184936 370.9235633764089 132.46513642269392 370.24346989276864 133.8293633607623 C 369.7233984052789 134.88176699870084 369.0833104206762 135.70030316154188 368.24319494088525 136.28497184928548 C 367.4030794610942 136.86964053702908 366.32293098707714 137.29839757470776 364.96274401979633 137.5712429623214 C 363.6425625515533 137.8440883499351 361.44226010448153 137.96102208748383 358.40184217761873 137.96102208748383 C 355.5214462469065 137.96102208748383 353.3211437998348 137.8830662624513 351.840940335441 137.68817669987013 C 350.36073687104727 137.4932871372889 349.1605718999173 137.14248592464273 348.2404454220509 136.67475097444785 C 346.8802584547701 135.97314854915552 345.9201264778661 134.92074491121699 345.3200439923012 133.51754006063234 C 344.7199615067361 132.11433521004764 344.43992301347237 130.20441749675186 344.43992301347237 127.67085318319621 C 344.43992301347237 124.86444348202687 344.8799835028867 122.75963620614985 345.72009898267777 121.31745344304895 C 346.5602144624688 119.83629276743184 347.7603794335988 118.86184495452582 349.28058839703033 118.35513209181468 C 350.7607918614241 117.88739714161974 353.3211437998349 117.6145517540061 356.96164421226274 117.6145517540061 Z  M 357.44171020071474 120.38198354265919 C 355.3214187517183 120.38198354265919 353.6811932911738 120.4599393676917 352.6010448171569 120.61585101775663 C 351.52089634313984 120.7717626678216 350.64077536431114 121.0446080554353 350.00068737970844 121.43438718059772 C 349.2405828979927 121.9021221307926 348.6805059114654 122.64270246860119 348.3604619191641 123.69510610653967 C 348.00041242782504 124.70853183196195 347.84039043167445 126.11173668254659 347.84039043167445 127.90472065829366 C 347.84039043167445 129.93157210913822 348.08042342590034 131.41273278475532 348.5204839153148 132.4261585101776 C 348.96054440472915 133.43958423559988 349.76065438548244 134.1411866608922 350.88080835853725 134.56994369857082 C 352.1209788287049 135.03767864876576 354.521308770965 135.27154612386315 358.08179818531755 135.27154612386315 C 360.40211712950236 135.27154612386315 362.122353588122 135.19359029883069 363.20250206213905 135.0376786487657 C 364.2826505361562 134.88176699870073 365.1627715149849 134.56994369857082 365.8028594995875 134.10220874837594 C 366.5229584822656 133.5954958856648 367.04302996975525 132.89389346037248 367.3230684630189 131.91944564746646 C 367.6431124553203 130.94499783456044 367.803134451471 129.580770896492 367.803134451471 127.78778692074488 C 367.803134451471 125.68297964486791 367.563101457245 124.16284105673455 367.0830354687929 123.18839324382853 C 366.5229584822656 122.09701169337379 365.6428375034369 121.35643135556515 364.3626615342315 121.00563014291899 C 363.12249106406364 120.53789519272416 360.80217211987895 120.38198354265919 357.44171020071474 120.38198354265919 Z " fill-rule="evenodd" fill="rgb(255,255,255)" stroke-width="0.17962189590911132" stroke="rgba(0,0,0,0)" stroke-linejoin="miter" stroke-linecap="butt"/><path d=" M 374.3640362936485 117.84841922910354 L 377.60448171569954 117.84841922910354 L 377.60448171569954 120.84971849285412 L 377.84451470992553 120.84971849285412 C 378.5246081935659 119.5634473798182 379.5647511685453 118.70593330446084 381.0049491339014 118.27717626678222 C 382.40514160021974 117.84841922910354 384.80547154247984 117.6145517540061 388.16593346164404 117.6145517540061 C 391.0863348913938 117.6145517540061 393.2466318394279 117.77046340407102 394.64682430574635 118.08228670420098 C 396.0470167720647 118.39411000433088 397.1671707451194 118.97877869207454 397.9672807258728 119.79731485491558 C 398.6073687104755 120.4599393676917 399.04742919988985 121.27847553053275 399.28746219411585 122.25292334343877 C 399.52749518834185 123.22737115634473 399.6475116854549 124.66955391944569 399.6475116854549 126.50151580770896 L 399.6475116854549 137.72715461238633 L 396.40706626340375 137.72715461238633 L 396.40706626340375 127.82676483326114 C 396.40706626340375 126.07275877003033 396.32705526532845 124.78648765699441 396.16703326917775 124.00692940666957 C 396.00701127302705 123.22737115634473 395.7269727797635 122.56474664356867 395.2469067913114 122.05803378085753 C 394.6868298047841 121.43438718059767 393.8867198240307 121.00563014291899 392.72656035193836 120.73278475530535 C 391.60640637888366 120.45993936769165 389.92617541930156 120.34300563014293 387.68586747319216 120.34300563014293 C 385.20552653285677 120.34300563014293 383.245257080011 120.53789519272416 381.84506461369267 120.88869640537033 C 380.4448721473742 121.23949761801649 379.4047291723949 121.82416630576009 378.72463568875446 122.64270246860113 C 378.24456970030246 123.22737115634473 377.92452570800117 123.88999566912085 377.76450371185047 124.63057600692943 C 377.60448171569976 125.37115634473801 377.52447071762447 126.65742745777399 377.52447071762447 128.52836725855352 L 377.52447071762447 137.72715461238633 L 374.2840252955733 137.72715461238633 L 374.2840252955733 117.84841922910354 L 374.3640362936485 117.84841922910354 Z " fill="rgb(255,255,255)" stroke-width="0.17962189590911132" stroke="rgba(0,0,0,0)" stroke-linejoin="miter" stroke-linecap="butt"/></svg>