<?xml version="1.0" standalone="no"?><!-- Generator: Gravit.io --><svg xmlns="http://www.w3.org/2000/svg" xmlns:xlink="http://www.w3.org/1999/xlink" style="isolation:isolate" width="342" height="175"><rect width="342" height="175" style="fill:rgb(0,0,0)"/><rect x="0" y="0" width="342" height="175" transform="matrix(1,0,0,1,0,0)" fill="rgb(23,23,23)" fill-opacity="100" stroke-width="0.17962189590911132" stroke="rgb(0,0,0)" stroke-opacity="0" stroke-linejoin="miter" stroke-linecap="butt"/><path d=" M 240.7012467435802 61.80740444321714 L 273.38021934632013 74.17218016881077 L 273.38021934632013 74.17218016881077 L 275.00124674358017 41.572180168810746 L 267.97679468878584 67.09737805799284 L 240.7012467435802 61.80740444321714 Z " fill="rgb(70,70,70)" fill-opacity="100" stroke-width="0.17962189590911132" stroke="rgb(0,0,0)" stroke-opacity="0" stroke-linejoin="miter" stroke-linecap="butt"/><path d=" M 273.4 74.15931734317348 L 302.37997189037253 85.10000000000008 L 285.3121574139143 74.11632841328418 L 306.9 61.80000000000007 L 273.4 74.15931734317348 L 273.4 74.15931734317348 Z " fill="rgb(255,255,255)" fill-opacity="100" stroke-width="0.17962189590911132" stroke="rgb(0,0,0)" stroke-opacity="0" stroke-linejoin="miter" stroke-linecap="butt"/><path d=" M 73.90896637608967 86.70286085825745 Q 73.90896637608967 87.51430429128737 73.58281444582815 88.21131339401819 Q 73.25666251556663 88.90832249674901 72.67079701120792 89.41807542262677 Q 72.08493150684933 89.92782834850453 71.27559153175594 90.21391417425224 Q 70.46625155666254 90.5 69.51195516811958 90.5 L 58 90.5 L 58 87.79518855656693 L 69.51195516811958 87.79518855656693 Q 70.09178082191784 87.79518855656693 70.41793275217935 87.50910273081922 Q 70.74408468244087 87.22301690507152 70.74408468244087 86.70286085825745 L 70.74408468244087 75.58192457737317 L 73.90896637608967 75.58192457737317 L 73.90896637608967 86.70286085825745 Z  M 91.36413449564134 86.70286085825745 Q 91.36413449564134 87.39986996098827 91.15877957658779 87.95643693107928 Q 90.95342465753424 88.51300390117035 90.61519302615193 88.93433029908971 Q 90.27696139476961 89.35565669700907 89.83001245330013 89.65214564369307 Q 89.38306351183064 89.94863459037708 88.89383561643831 90.13589076723014 Q 88.40460772104609 90.32314694408319 87.90330012453296 90.4115734720416 Q 87.40199252801995 90.5 86.95504358655046 90.5 L 81.28966376089659 90.5 Q 80.63735990037355 90.5 79.86425902864255 90.30234070221064 Q 79.09115815691155 90.10468140442129 78.43281444582817 89.65214564369307 Q 77.77447073474468 89.19960988296486 77.33356164383565 88.47659297789335 Q 76.8926525529265 87.75357607282183 76.8926525529265 86.70286085825745 L 76.8926525529265 83.04096228868656 Q 76.8926525529265 82.00065019505848 77.33356164383565 81.27763328998697 Q 77.77447073474468 80.55461638491545 78.43281444582817 80.10208062418724 Q 79.09115815691155 79.64954486345903 79.86425902864255 79.45188556566967 Q 80.63735990037355 79.25422626788037 81.28966376089659 79.25422626788037 L 86.95504358655046 79.25422626788037 Q 88.16301369863015 79.25422626788037 89.00859277708594 79.62873862158648 Q 89.85417185554172 80.00325097529259 90.37359900373599 80.5702210663199 Q 90.89302615193026 81.13719115734716 91.12858032378574 81.80299089726918 Q 91.36413449564134 82.46879063719115 91.36413449564134 83.04096228868656 L 91.36413449564134 86.70286085825745 Z  M 88.22341220423414 83.06176853055916 Q 88.22341220423414 82.5 87.89726027397262 82.22951885565669 Q 87.5711083437111 81.95903771131339 86.95504358655046 81.95903771131339 L 81.31382316313818 81.95903771131339 Q 80.68567870485674 81.95903771131339 80.35952677459522 82.23472041612484 Q 80.03337484433371 82.51040312093625 80.03337484433371 83.04096228868656 L 80.03337484433371 86.70286085825745 Q 80.03337484433371 87.23342002600776 80.35952677459522 87.51430429128737 Q 80.68567870485674 87.79518855656693 81.31382316313818 87.79518855656693 L 86.95504358655046 87.79518855656693 Q 87.5952677459527 87.79518855656693 87.90933997509342 87.51430429128737 Q 88.22341220423414 87.23342002600776 88.22341220423414 86.70286085825745 L 88.22341220423414 83.06176853055916 Z  M 108.55354919053548 90.5 L 105.41282689912828 90.5 L 105.41282689912828 83.04096228868656 Q 105.41282689912828 82.51040312093625 105.09875466998756 82.23472041612484 Q 104.78468244084684 81.95903771131339 104.1565379825654 81.95903771131339 L 98.49115815691152 81.95903771131339 L 98.49115815691152 79.25422626788037 L 104.1565379825654 79.25422626788037 Q 104.60348692403488 79.25422626788037 105.09875466998756 79.34265279583872 Q 105.59402241594023 79.43107932379712 106.08325031133245 79.61833550065018 Q 106.57247820672478 79.80559167750323 107.01942714819427 80.10208062418724 Q 107.46637608966375 80.39856957087125 107.80460772104607 80.8198959687906 Q 108.14283935242838 81.24122236671002 108.34819427148193 81.79258777633288 Q 108.55354919053548 82.34395318595574 108.55354919053548 83.04096228868656 L 108.55354919053548 90.5 Z  M 97.22278953922785 90.5 L 94.08206724782065 90.5 L 94.08206724782065 74.5 L 97.22278953922785 74.5 L 97.22278953922785 90.5 Z  M 125.89999999999998 90.5 L 122.75927770859278 90.5 L 122.75927770859278 84.25812743823144 Q 122.75927770859278 83.72756827048113 122.54788293897877 83.30624187256177 Q 122.33648816936488 82.88491547464236 121.97409713574098 82.58322496749025 Q 121.61170610211707 82.2815344603381 121.12247820672474 82.12028608582574 Q 120.63325031133252 81.95903771131339 120.06550435865506 81.95903771131339 L 114.56924034869235 81.95903771131339 L 114.56924034869235 90.5 L 111.42851805728515 90.5 L 111.42851805728515 80.5962288686606 Q 111.42851805728515 80.31534460338099 111.54931506849312 80.07087126137839 Q 111.67011207970108 79.82639791937578 111.88754669987543 79.64434330299088 Q 112.10498132004977 79.46228868660597 112.3948941469489 79.35825747724317 Q 112.68480697384803 79.25422626788037 113.01095890410954 79.25422626788037 L 120.08966376089666 79.25422626788037 Q 120.6815691158157 79.25422626788037 121.33991282689908 79.36866059817942 Q 121.99825653798257 79.48309492847852 122.64452054794515 79.73797139141743 Q 123.29078455790784 79.99284785435628 123.87665006226644 80.38296488946679 Q 124.46251556662514 80.77308192457735 124.91550435865497 81.32964889466837 Q 125.36849315068491 81.88621586475938 125.63424657534244 82.61443433029905 Q 125.89999999999998 83.34265279583872 125.89999999999998 84.25812743823144 L 125.89999999999998 90.5 Z " fill-rule="evenodd" fill="rgb(70,70,70)" fill-opacity="100" stroke-width="1" stroke="rgb(0,0,0)" stroke-opacity="0" stroke-linejoin="miter" stroke-linecap="square"/><path d=" M 150.36630070710828 90.5 L 138.58457387420913 90.5 Q 138.13239672497207 90.5 137.6111369557127 90.4115734720416 Q 137.08987718645324 90.32314694408319 136.58117789356152 90.13589076723014 Q 136.0724786006699 89.94863459037708 135.6077409750651 89.65214564369307 Q 135.1430033494603 89.35565669700907 134.78502977298103 88.93433029908971 Q 134.42705619650167 88.51300390117035 134.21352809825078 87.95643693107928 Q 134 87.39986996098827 134 86.70286085825745 L 134 79.37906371911572 Q 134 79.00455136540961 134.10676404912545 78.57282184655395 Q 134.21352809825078 78.14109232769829 134.4396166728693 77.71976592977893 Q 134.66570524748784 77.29843953185951 135.02995906215108 76.91352405721716 Q 135.3942128768142 76.52860858257475 135.90291216970593 76.23211963589074 Q 136.41161146259765 75.93563068920673 137.0773167100856 75.75877763328998 Q 137.74302195757343 75.58192457737317 138.58457387420913 75.58192457737317 L 150.36630070710828 75.58192457737317 L 150.36630070710828 78.28673602080625 L 138.58457387420913 78.28673602080625 Q 137.94398957945657 78.28673602080625 137.60485671752883 78.5676202860858 Q 137.26572385560098 78.84850455136541 137.26572385560098 79.39986996098827 L 137.26572385560098 86.70286085825745 Q 137.26572385560098 87.22301690507152 137.6111369557127 87.50910273081922 Q 137.95655005582432 87.79518855656693 138.58457387420913 87.79518855656693 L 150.36630070710828 87.79518855656693 L 150.36630070710828 90.5 Z  M 167.10941570524744 86.7756827048114 Q 167.10941570524744 87.33745123537057 166.87076665426127 87.98764629388813 Q 166.632117603275 88.6378413524057 166.09829735764788 89.19440832249671 Q 165.56447711202077 89.75097529258778 164.70408448083367 90.12548764629389 Q 163.84369184964646 90.5 162.61276516561213 90.5 L 156.7219017491626 90.5 Q 156.04363602530702 90.5 155.258606252326 90.30234070221064 Q 154.47357647934496 90.10468140442129 153.80159099367324 89.66254876462938 Q 153.12960550800142 89.22041612483741 152.67742835876436 88.5078023407022 Q 152.2252512095273 87.79518855656693 152.2252512095273 86.7756827048114 Q 152.2252512095273 86.21391417425224 152.46390026051358 85.55851755526658 Q 152.70254931149975 84.90312093628086 153.23636955712686 84.34655396618984 Q 153.77018980275398 83.78998699609883 154.63058243394119 83.41547464239272 Q 155.4909750651284 83.04096228868656 156.7219017491626 83.04096228868656 L 162.61276516561213 83.04096228868656 L 162.61276516561213 85.62093628088422 L 156.7219017491626 85.62093628088422 Q 156.05619650167466 85.62093628088422 155.69194268701153 85.95903771131339 Q 155.3276888723483 86.29713914174249 155.3276888723483 86.79648894668401 Q 155.3276888723483 87.32704811443432 155.7484648306662 87.62353706111833 Q 156.16924078898398 87.92002600780233 156.747022701898 87.92002600780233 L 162.61276516561213 87.92002600780233 Q 163.27847041310008 87.92002600780233 163.64272422776332 87.58712613784132 Q 164.00697804242645 87.25422626788037 164.00697804242645 86.75487646293885 L 164.00697804242645 82.97854356306891 Q 164.00697804242645 82.4479843953186 163.61132303684406 82.13589076723014 Q 163.21566803126166 81.82379713914173 162.61276516561213 81.82379713914173 L 155.4407331596576 81.82379713914173 L 155.4407331596576 79.25422626788037 L 162.61276516561213 79.25422626788037 Q 163.29103088946783 79.25422626788037 164.07606066244875 79.45188556566967 Q 164.8610904354298 79.64954486345903 165.5330759211016 80.09167750325093 Q 166.20506140677332 80.5338101430429 166.65723855601038 81.24642392717811 Q 167.10941570524744 81.95903771131339 167.10941570524744 82.97854356306891 L 167.10941570524744 86.7756827048114 Z  M 183.02353926311866 86.70286085825745 Q 183.02353926311866 87.39986996098827 182.8100111648679 87.95643693107928 Q 182.596483066617 88.51300390117035 182.2447897283215 88.93433029908971 Q 181.89309639002602 89.35565669700907 181.4283587644212 89.65214564369307 Q 180.9636211388165 89.94863459037708 180.4549218459248 90.13589076723014 Q 179.94622255303307 90.32314694408319 179.4249627837737 90.4115734720416 Q 178.90370301451435 90.5 178.43896538890954 90.5 L 169.59639002605138 90.5 L 169.59639002605138 87.79518855656693 L 178.41384443617414 87.79518855656693 Q 179.0795496836621 87.79518855656693 179.41868254558983 87.51430429128737 Q 179.75781540751768 87.23342002600776 179.75781540751768 86.70286085825745 Q 179.69501302567915 85.62093628088422 178.43896538890954 85.62093628088422 L 173.37709341272796 85.62093628088422 Q 172.29689244510598 85.62093628088422 171.54326386304422 85.30884265279582 Q 170.78963528098245 84.99674902470741 170.31861741719388 84.52860858257475 Q 169.8475995534053 84.06046814044214 169.6403516933383 83.51950585175553 Q 169.43310383327128 82.97854356306891 169.43310383327128 82.51040312093625 Q 169.43310383327128 81.60533159947983 169.8224786006699 80.98634590377111 Q 170.21185336806843 80.3673602080624 170.8021957573502 79.98244473341998 Q 171.39253814663186 79.59752925877763 172.0833643468552 79.42587776332897 Q 172.77419054707855 79.25422626788037 173.37709341272796 79.25422626788037 L 181.4032378116858 79.25422626788037 L 181.4032378116858 81.95903771131339 L 173.40221436546335 81.95903771131339 Q 173.15100483810943 81.95903771131339 173.00655935988084 82.00585175552663 Q 172.86211388165236 82.05266579973988 172.79303126163006 82.13068920676199 Q 172.72394864160776 82.20871261378409 172.71138816524 82.29713914174249 Q 172.69882768887237 82.3855656697009 172.69882768887237 82.46879063719115 Q 172.71138816524 82.63524057217165 172.77419054707855 82.72886866059815 Q 172.83699292891697 82.82249674902471 172.93119650167466 82.8641092327698 Q 173.02540007443247 82.90572171651496 173.14472459992555 82.91092327698306 Q 173.26404912541864 82.9161248374512 173.37709341272796 82.9161248374512 L 178.43896538890954 82.9161248374512 Q 179.69501302567915 82.9161248374512 180.57424637141787 83.29063719115732 Q 181.4534797171566 83.66514954486343 181.99358020096759 84.23211963589074 Q 182.53368068477857 84.79908972691806 182.77860997394862 85.46488946684002 Q 183.02353926311866 86.13068920676199 183.02353926311866 86.70286085825745 Z  M 197.65649423148488 81.95903771131339 L 191.95403796055075 81.95903771131339 L 191.95403796055075 90.5 L 188.65063267584662 90.5 L 188.65063267584662 81.95903771131339 L 184.40519166356523 81.95903771131339 L 184.40519166356523 79.25422626788037 L 188.65063267584662 79.25422626788037 L 188.65063267584662 75.58192457737317 L 191.95403796055075 75.58192457737317 L 191.95403796055075 79.25422626788037 L 197.65649423148488 79.25422626788037 L 197.65649423148488 81.95903771131339 Z  M 211.6865463342017 81.95903771131339 L 204.33866765909931 81.95903771131339 Q 203.67296241161148 81.95903771131339 203.33382954968363 82.23472041612484 Q 202.99469668775578 82.51040312093625 202.99469668775578 83.04096228868656 L 202.99469668775578 90.5 L 199.7289728321548 90.5 L 199.7289728321548 83.04096228868656 Q 199.7289728321548 82.34395318595574 199.94250093040557 81.79258777633288 Q 200.15602902865646 81.24122236671002 200.51400260513583 80.8198959687906 Q 200.8719761816152 80.39856957087125 201.3367138072199 80.10208062418724 Q 201.8014514328247 79.80559167750323 202.31015072571643 79.61833550065018 Q 202.81885001860803 79.43107932379712 203.3401097878675 79.34265279583872 Q 203.86136955712686 79.25422626788037 204.31354670636392 79.25422626788037 L 211.6865463342017 79.25422626788037 L 211.6865463342017 81.95903771131339 Z  M 217.15035355414955 76.94473342002601 L 213.88462969854857 76.94473342002601 L 213.88462969854857 74.5 L 217.15035355414955 74.5 L 217.15035355414955 76.94473342002601 Z  M 217.15035355414955 90.5 L 213.88462969854857 90.5 L 213.88462969854857 79.25422626788037 L 217.15035355414955 79.25422626788037 L 217.15035355414955 90.5 Z  M 226.24413844436174 90.5 L 224.787123185709 90.5 Q 224.0837365091179 90.5 223.28614625976923 90.30234070221064 Q 222.48855601042055 90.10468140442129 221.7977298101972 89.65214564369307 Q 221.10690360997387 89.19960988296486 220.6547264607368 88.47659297789335 Q 220.20254931149975 87.75357607282183 220.20254931149975 86.70286085825745 L 220.20254931149975 74.5 L 223.46827316710085 74.5 L 223.46827316710085 86.70286085825745 Q 223.46827316710085 87.20221066319891 223.84508745813173 87.49869960988292 Q 224.2219017491626 87.79518855656693 224.787123185709 87.79518855656693 L 226.24413844436174 87.79518855656693 L 226.24413844436174 90.5 Z  M 234.30796427242274 90.5 L 232.85094901377 90.5 Q 232.147562337179 90.5 231.34997208783022 90.30234070221064 Q 230.55238183848155 90.10468140442129 229.8615556382582 89.65214564369307 Q 229.17072943803498 89.19960988296486 228.71855228879792 88.47659297789335 Q 228.26637513956086 87.75357607282183 228.26637513956086 86.70286085825745 L 228.26637513956086 74.5 L 231.53209899516185 74.5 L 231.53209899516185 86.70286085825745 Q 231.53209899516185 87.20221066319891 231.90891328619273 87.49869960988292 Q 232.2857275772236 87.79518855656693 232.85094901377 87.79518855656693 L 234.30796427242274 87.79518855656693 L 234.30796427242274 90.5 Z  M 251.17668403423886 86.70286085825745 Q 251.17668403423886 87.39986996098827 250.96315593598808 87.95643693107928 Q 250.7496278377372 88.51300390117035 250.3979344994417 88.93433029908971 Q 250.0462411611462 89.35565669700907 249.58150353554151 89.65214564369307 Q 249.1167659099367 89.94863459037708 248.60806661704498 90.13589076723014 Q 248.09936732415326 90.32314694408319 247.5781075548939 90.4115734720416 Q 247.05684778563455 90.5 246.59211016002973 90.5 L 240.7012467435802 90.5 Q 240.02298101972463 90.5 239.21911053219196 90.30234070221064 Q 238.4152400446594 90.10468140442129 237.73069408261995 89.65214564369307 Q 237.0461481205806 89.19960988296486 236.58769073315966 88.47659297789335 Q 236.12923334573873 87.75357607282183 236.12923334573873 86.70286085825745 L 236.12923334573873 83.04096228868656 Q 236.12923334573873 82.00065019505848 236.58769073315966 81.27763328998697 Q 237.0461481205806 80.55461638491545 237.73069408261995 80.10208062418724 Q 238.4152400446594 79.64954486345903 239.21911053219196 79.45188556566967 Q 240.02298101972463 79.25422626788037 240.7012467435802 79.25422626788037 L 246.59211016002973 79.25422626788037 Q 247.84815779679934 79.25422626788037 248.72739114253807 79.62873862158648 Q 249.6066244882769 80.00325097529259 250.14672497208778 80.5702210663199 Q 250.68682545589877 81.13719115734716 250.93175474506882 81.80299089726918 Q 251.17668403423886 82.46879063719115 251.17668403423886 83.04096228868656 L 251.17668403423886 86.70286085825745 Z  M 247.91096017863788 83.06176853055916 Q 247.91096017863788 82.5 247.57182731671003 82.22951885565669 Q 247.2326944547823 81.95903771131339 246.59211016002973 81.95903771131339 L 240.7263676963156 81.95903771131339 Q 240.0732229251954 81.95903771131339 239.73409006326756 82.23472041612484 Q 239.3949572013397 82.51040312093625 239.3949572013397 83.04096228868656 L 239.3949572013397 86.70286085825745 Q 239.3949572013397 87.23342002600776 239.73409006326756 87.51430429128737 Q 240.0732229251954 87.79518855656693 240.7263676963156 87.79518855656693 L 246.59211016002973 87.79518855656693 Q 247.25781540751768 87.79518855656693 247.58438779307778 87.51430429128737 Q 247.91096017863788 87.23342002600776 247.91096017863788 86.70286085825745 L 247.91096017863788 83.06176853055916 Z  M 269 90.5 L 265.7342761443989 90.5 L 265.7342761443989 84.25812743823144 Q 265.7342761443989 83.72756827048113 265.51446780796425 83.30624187256177 Q 265.2946594715296 82.88491547464236 264.9178451804987 82.58322496749025 Q 264.54103088946783 82.2815344603381 264.0323315965761 82.12028608582574 Q 263.5236323036844 81.95903771131339 262.9332899144026 81.95903771131339 L 257.21827316710085 81.95903771131339 L 257.21827316710085 90.5 L 253.95254931149975 90.5 L 253.95254931149975 80.5962288686606 Q 253.95254931149975 80.31534460338099 254.0781540751767 80.07087126137839 Q 254.20375883885367 79.82639791937578 254.4298474134722 79.64434330299088 Q 254.65593598809073 79.46228868660597 254.95738742091544 79.35825747724317 Q 255.25883885374014 79.25422626788037 255.597971715668 79.25422626788037 L 262.958410867138 79.25422626788037 Q 263.5738742091552 79.25422626788037 264.25842017119464 79.36866059817942 Q 264.9429661332341 79.48309492847852 265.6149516189058 79.73797139141743 Q 266.28693710457753 79.99284785435628 266.8961202084108 80.38296488946679 Q 267.5053033122441 80.77308192457735 267.9763211760327 81.32964889466837 Q 268.4473390398214 81.88621586475938 268.7236695199107 82.61443433029905 Q 269 83.34265279583872 269 84.25812743823144 L 269 90.5 Z " fill-rule="evenodd" fill="rgb(255,255,255)" fill-opacity="100" stroke-width="1" stroke="rgb(0,0,0)" stroke-opacity="0" stroke-linejoin="miter" stroke-linecap="square"/></svg>