<?xml version="1.0" standalone="no"?><!-- Generator: Gravit.io --><svg xmlns="http://www.w3.org/2000/svg" xmlns:xlink="http://www.w3.org/1999/xlink" style="isolation:isolate" width="20" height="23"><path d=" M 17.703105705255293 10.018510664419567 C 16.883282508468042 10.018510664419567 16.218615457421073 10.585389763794174 16.218615457421073 11.284698892448036 L 16.218615457421073 9.808652447440576 C 16.218615457421073 9.06563649824585 15.5125926247946 8.463399072141552 14.641530478208145 8.463399072141552 L 14.208494185242218 8.463399072141552 C 13.337527991745276 8.463399072141552 12.63140920602929 9.06563649824585 12.63140920602929 9.808652447440576 L 12.63140920602929 8.497529679193129 C 12.63140920602929 7.754513729998401 11.925194467223792 7.152194455915563 11.054228273726848 7.152194455915563 L 10.435714658734966 7.152194455915563 C 9.564652512148513 7.152194455915563 8.858533726432526 7.754513729998401 8.858533726432526 8.497529679193129 L 8.858533726432526 1.8452533752990234 C 8.858533726432526 1.1022374261042955 8.152414940716541 0.5 7.281352794130084 0.5 L 6.910302196988663 0.5 C 6.039240050402208 0.5 5.333121264686223 1.1022374261042973 5.333121264686223 1.8452533752990252 L 5.333121264686223 12.528706318291906 C 5.333121264686223 12.528706318291906 3.7963365830681735 8.062507673247987 1.6221355278244545 8.730141634206502 C 0.07585149034475336 9.205023605701085 1.0547649095422642 10.779696864850386 1.9931861249658755 13.739074224955448 C 2.7972730150732215 16.274560904196942 4.219681613993426 22.5 11.48707266051375 22.5 C 17.85778208554802 22.5 18.976499156163957 18.12170608390906 19.155643574282145 16.188293134814785 C 19.176273488527144 16.10407156489615 19.1875 16.016903467750037 19.1875 15.92736177922624 L 19.1875 11.284698892448036 C 19.1875 10.585389763794174 18.522928902042544 10.018510664419567 17.703105705255293 10.018510664419567 Z " fill="rgb(26,26,26)" stroke-width="1.3333333000000003" stroke="rgba(0,0,0,0)" stroke-linejoin="miter" stroke-linecap="butt"/></svg>