<?xml version="1.0" standalone="no"?><!-- Generator: Gravit.io --><svg xmlns="http://www.w3.org/2000/svg" xmlns:xlink="http://www.w3.org/1999/xlink" style="isolation:isolate" width="341" height="174"><rect width="341" height="174" style="fill:rgb(0,0,0)"/><rect x="-1" y="-1" width="342" height="175.00000000000003" transform="matrix(1,0,0,1,0,0)" fill="rgb(23,23,23)" stroke-width="0.17962189590911132" stroke="rgba(0,0,0,0)" stroke-linejoin="miter" stroke-linecap="butt"/><path d=" M 230.2284850151222 64.3370648296224 L 262.9521583722847 76.71558617296107 L 262.9521583722847 76.71558617296107 L 264.5742370085234 44.079345552958614 L 257.54522958482255 69.63291917825079 L 230.2284850151222 64.3370648296224 Z " fill="rgb(157,159,162)" stroke-width="0.17962189590911132" stroke="rgba(0,0,0,0)" stroke-linejoin="miter" stroke-linecap="butt"/><path d=" M 262.9521583722847 76.71558617296107 L 291.86747319219126 87.67326854471652 L 274.8474017047016 76.67253044654946 L 296.404591696453 64.3370648296224 L 262.9521583722847 76.71558617296107 L 262.9521583722847 76.71558617296107 Z " fill="rgb(255,255,255)" stroke-width="0.17962189590911132" stroke="rgba(0,0,0,0)" stroke-linejoin="miter" stroke-linecap="butt"/><path d=" M 71.31179543579864 77.8565629228688 L 73.61561726697818 77.8565629228688 L 73.61561726697818 86.01562307786942 C 73.61561726697818 88.21146512486168 73.56860049491328 89.58924837003327 73.4745669507835 90.17050067659004 C 73.33351663458885 91.0961987944397 73.02790761616706 91.80661828023132 72.55773989551818 92.30175913396486 C 72.08757217486931 92.79689998769838 71.38232059389597 93.14134579899131 70.46549353863065 93.33509656784356 C 69.36059939510574 93.57190306310743 67.362386582348 93.70107024234228 64.42383832829245 93.70107024234228 C 62.28457519934 93.70107024234228 60.709513335166264 93.55037519990161 59.65163596370627 93.27051297822614 C 58.35867473192181 92.92606716693324 57.58289799285117 92.10800836511261 57.347814132526736 90.81633657276423 C 57.23027220236449 90.17050067659004 57.15974704426719 89.18021896912292 57.13623865823473 87.84549145036296 L 59.299010173219614 87.84549145036296 C 59.322518559252075 88.10382580883264 59.322518559252075 88.27604871447907 59.322518559252075 88.36216016730229 C 59.34602694528451 89.54619264362164 59.44006048941429 90.29966785582486 59.62812757767384 90.66564153032358 C 59.863211437998274 91.11772665764552 60.35688754467961 91.41911674252681 61.06213912565295 91.56981178496746 C 61.76739070662629 91.72050682740813 63.03684355237826 91.80661828023135 64.89400604894135 91.80661828023135 C 66.21047566675824 91.80661828023135 67.45642012647778 91.76356255381971 68.60833104206756 91.67745110099649 C 69.1725323068462 91.63439537458488 69.57217486939777 91.56981178496746 69.8542755017871 91.48370033214424 C 70.13637613417643 91.39758887932102 70.37145999450087 91.24689383688037 70.58303546879287 91.05314306802812 C 70.9121528732471 90.75175298314683 71.10021996150664 90.36425144544232 71.17074511960396 89.84758272850296 C 71.24127027770129 89.33091401156362 71.28828704976618 88.06077008242103 71.28828704976618 85.99409521466363 L 71.28828704976618 77.8565629228688 L 71.31179543579864 77.8565629228688 Z " fill="rgb(157,159,162)" stroke-width="0.17962189590911132" stroke="rgba(0,0,0,0)" stroke-linejoin="miter" stroke-linecap="butt"/><path d=" M 82.87792136376123 82.52810923852878 C 84.75859224635678 82.52810923852878 86.145587022271 82.57116496494042 87.06241407753632 82.67880428096946 C 87.9557327467692 82.78644359699847 88.66098432774251 82.98019436585072 89.15466043442385 83.26005658752622 C 89.90692878746208 83.66908598843655 90.44762166620828 84.27186615819913 90.80024745669496 85.02534137040236 C 91.12936486114916 85.8003444458114 91.2939235633763 86.8336818796901 91.2939235633763 88.14688153524428 C 91.2939235633763 89.61077623323912 91.08234808908429 90.73022511994104 90.68270552653274 91.48370033214427 C 90.37709650811098 92.06495263870106 90.00096233159186 92.51703776602297 89.50728622491053 92.83995571411008 C 89.01361011822917 93.16287366219716 88.37888369535321 93.39968015746102 87.57959857025008 93.55037519990167 C 86.80382183117942 93.70107024234231 85.51086059939499 93.76565383195974 83.72422326092922 93.76565383195974 C 82.03161946659321 93.76565383195974 80.73865823480878 93.7225981055481 79.86884795160836 93.61495878951906 C 78.99903766840791 93.50731947349003 78.29378608743457 93.3135687046378 77.75309320868837 93.05523434616809 C 76.95380808358524 92.66773280846361 76.38960681880658 92.08648050190682 76.03698102831993 91.31147742649777 C 75.68435523783327 90.53647435108876 75.51979653560613 89.48160905400424 75.51979653560613 88.08229794562682 C 75.51979653560613 86.53229179480876 75.77838878196303 85.36978718169523 76.27206488864437 84.5732562430804 C 76.7657409953257 83.75519744125977 77.47099257629904 83.21700086111461 78.36431124553192 82.93713863943911 C 79.2576299147648 82.67880428096943 80.76216662084124 82.52810923852878 82.87792136376123 82.52810923852878 Z  M 83.18353038218302 84.05658752614106 C 81.93758592246348 84.05658752614106 80.97374209513328 84.09964325255267 80.33901567225726 84.18575470537589 C 79.70428924938125 84.2718661581991 79.18710475666748 84.42256120063978 78.81097058014836 84.63783983269782 C 78.36431124553195 84.8961741911675 78.03519384107773 85.30520359207783 77.84712675281816 85.8864558986346 C 77.63555127852615 86.44618034198557 77.5415177343964 87.22118341739458 77.5415177343964 88.21146512486168 C 77.5415177343964 89.33091401156362 77.68256805059107 90.14897281338425 77.94116029694794 90.70869725673522 C 78.19975254330484 91.2684217000862 78.66992026395374 91.6559232377907 79.32815507286216 91.89272973305457 C 80.05691503986793 92.15106409152425 81.46741820181461 92.28023127075907 83.55966455870214 92.28023127075907 C 84.9231509485839 92.28023127075907 85.93401154797903 92.23717554434744 86.56873797085501 92.15106409152422 C 87.203464393731 92.064952638701 87.72064888644476 91.89272973305454 88.09678306296388 91.63439537458488 C 88.51993401154786 91.35453315290941 88.82554302996965 90.96703161520487 88.99010173219676 90.42883503505972 C 89.1781688204563 89.89063845491457 89.2722023645861 89.13716324271134 89.2722023645861 88.14688153524425 C 89.2722023645861 86.98437692213069 89.13115204839144 86.14479025710425 88.84905141600211 85.6065936769591 C 88.51993401154789 85.00381350719651 88.00274951883412 84.59478410628618 87.25048116579592 84.40103333743393 C 86.49821281275769 84.14269897896428 85.15823480890833 84.05658752614106 83.18353038218302 84.05658752614106 Z " fill-rule="evenodd" fill="rgb(157,159,162)" stroke-width="0.17962189590911132" stroke="rgba(0,0,0,0)" stroke-linejoin="miter" stroke-linecap="butt"/><path d=" M 93.19810283200431 77.8565629228688 L 95.1022821006323 77.8565629228688 L 95.1022821006323 84.2933940214049 L 95.24333241682697 84.2933940214049 C 95.64297497937855 83.6045023988191 96.27770140225454 83.13088940829137 97.12400329942253 82.89408291302748 C 97.97030519659052 82.65727641776361 99.3808083585372 82.52810923852876 101.33200439923004 82.52810923852876 C 102.97759142150116 82.52810923852876 104.2235358812207 82.61422069135197 105.09334616442115 82.78644359699847 C 105.93964806158914 82.9586665026449 106.59788287049759 83.28158445073198 107.06805059114646 83.71214171484813 C 107.46769315369804 84.09964325255261 107.74979378608734 84.57325624308037 107.86733571624956 85.13298068643134 C 108.00838603244424 85.69270512978231 108.07891119054156 86.61840324763197 108.07891119054156 87.93160290318617 L 108.07891119054156 93.63648665272486 L 106.17473192191355 93.63648665272486 L 106.17473192191355 88.46979948333133 C 106.17473192191355 87.32882273342359 106.12771514984865 86.55381965801458 106.05718999175133 86.10173453069264 C 105.96315644762157 85.67117726657649 105.79859774539446 85.28367572887198 105.51649711300513 84.98228564399069 C 105.21088809458337 84.6378398326978 104.71721198790203 84.4010333374339 104.05897717899359 84.25033829499328 C 103.40074237008514 84.09964325255261 102.41339015672247 84.03505966293521 101.12042892493804 84.03505966293521 C 99.66290899092647 84.03505966293521 98.53450646136915 84.12117111575843 97.71171295023362 84.31492188461068 C 96.88891943909806 84.50867265346294 96.27770140225451 84.81006273834423 95.87805883970296 85.24062000246035 C 95.5724498212812 85.56353795054746 95.36087434698916 85.92951162504617 95.2668408028594 86.31701316275068 C 95.17280725872962 86.70451470045516 95.12579048666473 87.4364620494526 95.12579048666473 88.4697994833313 L 95.12579048666473 93.63648665272483 L 93.22161121803674 93.63648665272483 L 93.22161121803674 77.8565629228688 L 93.19810283200431 77.8565629228688 Z " fill="rgb(157,159,162)" stroke-width="0.17962189590911132" stroke="rgba(0,0,0,0)" stroke-linejoin="miter" stroke-linecap="butt"/><path d=" M 110.03010723123441 82.65727641776364 L 111.93428649986242 82.65727641776364 L 111.93428649986242 84.31492188461074 L 112.0753368160571 84.31492188461074 C 112.47497937860865 83.60450239881912 113.08619741545218 83.1308894082914 113.9324993126202 82.8940829130275 C 114.75529282375575 82.65727641776364 116.16579598570243 82.52810923852878 118.14050041242771 82.52810923852878 C 119.85661259279615 82.52810923852878 121.12606543854815 82.614220691352 121.94885894968371 82.78644359699847 C 122.77165246081927 82.95866650264493 123.42988726972769 83.28158445073201 123.90005499037656 83.73366957805395 C 124.27618916689565 84.09964325255267 124.53478141325257 84.55172837987458 124.67583172944722 85.08992496001976 C 124.81688204564188 85.62812154016491 124.88740720373926 86.42465247877975 124.88740720373926 87.43646204945263 L 124.88740720373926 93.63648665272486 L 122.98322793511127 93.63648665272486 L 122.98322793511127 88.16840939845004 C 122.98322793511127 87.19965555418877 122.93621116304638 86.48923606839715 122.84217761891662 86.05867880428103 C 122.74814407478684 85.62812154016491 122.58358537255975 85.2621478656662 122.30148474017042 84.98228564399072 C 121.97236733571617 84.6378398326978 121.5021996150673 84.40103333743393 120.82045642012645 84.25033829499331 C 120.162221611218 84.09964325255264 119.17486939785533 84.03505966293524 117.85839978003847 84.03505966293524 C 116.40087984602692 84.03505966293524 115.24896893043717 84.14269897896428 114.42617541930161 84.33644974781653 C 113.60338190816606 84.53020051666878 112.9921638713225 84.85311846475587 112.59252130877096 85.3052035920778 C 112.31042067638163 85.62812154016491 112.12235358812208 85.99409521466363 112.0283200439923 86.40312461557393 C 111.93428649986254 86.81215401648426 111.88726972779762 87.52257350227588 111.88726972779762 88.55591093615458 L 111.88726972779762 93.63648665272488 L 109.98309045916963 93.63648665272488 L 109.98309045916963 82.65727641776364 L 110.03010723123441 82.65727641776364 Z " fill="rgb(157,159,162)" stroke-width="0.17962189590911132" stroke="rgba(0,0,0,0)" stroke-linejoin="miter" stroke-linecap="butt"/><path d=" M 151.1227660159471 88.2329929880675 L 153.35606268902927 88.2329929880675 C 153.28553753093195 89.67535982285652 153.21501237283468 90.6441136671178 153.07396205663997 91.20383811046874 C 152.7918614242506 92.36634272358229 151.94555952708265 93.0982900725797 150.5115479791035 93.35662443104938 C 149.35963706351373 93.57190306310746 147.2908990926586 93.67954237913649 144.3053340665382 93.67954237913649 C 140.4499587572173 93.67954237913649 137.84052790761598 93.55037519990164 136.50054990376668 93.31356870463777 C 135.2075886719822 93.07676220937388 134.33777838878177 92.45245417640551 133.89111905416536 91.46217246893842 C 133.4444597195489 90.4718907614713 133.2328842452569 88.64202238897776 133.2328842452569 85.9940952146636 C 133.2328842452569 83.47533521958424 133.39744294748402 81.6454668470907 133.72656035193825 80.50449009718297 C 134.1262029144898 79.14823471521719 135.16057189991733 78.37323163980814 136.8531756942533 78.13642514454428 C 138.47525433049202 77.9211465124862 140.84960131976885 77.79197933325138 143.9527082760515 77.79197933325138 C 146.93827330217198 77.79197933325138 149.07753643112437 77.9211465124862 150.3469892768764 78.20100873416168 C 150.98171569975239 78.33017591339653 151.54591696453105 78.58851027186618 152.01608468517992 78.97601180957072 C 152.4862524058288 79.36351334727523 152.76835303821815 79.79407061139135 152.9094033544128 80.28921146512492 C 153.026945284575 80.76282445565265 153.09747044267232 81.68852257350231 153.12097882870478 83.04477795546812 L 150.98171569975239 83.04477795546812 C 150.98171569975239 82.76491573379265 150.95820731371998 82.59269282814618 150.95820731371998 82.50658137532297 C 150.95820731371998 81.75310616311974 150.88768215562266 81.21490958297458 150.72312345339554 80.89199163488748 C 150.55856475116838 80.5690736868004 150.2529557327466 80.3322671915365 149.78278801209774 80.16004428589007 C 148.93648611492978 79.83712633780299 146.93827330217198 79.68643129536231 143.81165795985686 79.68643129536231 C 141.55485290074222 79.68643129536231 139.83874072037378 79.75101488497974 138.71033819081646 79.85865420100875 C 137.58193566125914 79.96629351703778 136.8296673082209 80.16004428589004 136.47704151773422 80.39685078115393 C 136.14792411328 80.6336572764178 135.91284025295556 81.15032599335713 135.7482815507285 81.92532906876617 C 135.58372284850134 82.70033214417522 135.513197690404 83.77672530446553 135.513197690404 85.13298068643131 C 135.513197690404 85.7788165826055 135.53670607643647 86.61840324763195 135.60723123453386 87.65174068151067 C 135.65424800659872 88.68507811538937 135.72477316469605 89.37396973797517 135.79529832279337 89.76147127567968 C 135.88933186692316 90.36425144544226 136.10090734121513 90.8163365727642 136.43002474566936 91.0961987944397 C 136.75914215012364 91.37606101611517 137.27632664283738 91.52675605855582 138.00508660984315 91.59133964817322 C 139.29804784162758 91.72050682740807 141.17871872422313 91.78509041702547 143.60008248556488 91.78509041702547 C 144.35235083860312 91.78509041702547 145.31619466593332 91.76356255381968 146.51512235358803 91.72050682740807 C 147.71405004124267 91.67745110099646 148.48982678031336 91.63439537458486 148.79543579873513 91.59133964817322 C 149.4301622216111 91.50522819535 149.90032994226004 91.39758887932099 150.2294473467142 91.24689383688032 C 150.53505636513597 91.09619879443967 150.746631839428 90.85939229917581 150.8641737695902 90.53647435108873 C 151.02873247181736 90.25661212941328 151.0992576299147 89.50313691721006 151.1227660159471 88.2329929880675 Z " fill="rgb(255,255,255)" stroke-width="0.17962189590911132" stroke="rgba(0,0,0,0)" stroke-linejoin="miter" stroke-linecap="butt"/><path d=" M 157.0703876821555 85.951039488252 L 155.09568325543017 85.951039488252 C 155.07217486939777 85.75728871939974 155.07217486939777 85.58506581375327 155.07217486939777 85.47742649772424 C 155.07217486939777 84.33644974781653 155.54234259004664 83.53991880920167 156.48267803134445 83.13088940829137 C 157.4230134726422 82.72186000738104 159.1861424250755 82.506581375323 161.79557327467683 82.506581375323 C 163.8408028594995 82.506581375323 165.29832279351103 82.59269282814621 166.19164146274392 82.76491573379268 C 167.0849601319768 82.93713863943911 167.7902117129501 83.2600565875262 168.2838878196315 83.73366957805395 C 168.70703876821545 84.12117111575846 168.9891394006048 84.5732562430804 169.10668133076706 85.08992496001976 C 169.22422326092925 85.6065936769591 169.29474841902658 86.53229179480878 169.29474841902658 87.84549145036296 L 169.29474841902658 93.63648665272486 L 167.41407753643102 93.63648665272486 L 167.46109430849594 92.34481486037647 L 167.36706076436616 92.34481486037647 C 166.89689304371723 92.94759503013906 166.33269177893857 93.33509656784356 165.67445697003012 93.50731947349003 C 165.01622216112173 93.67954237913646 163.77027770140216 93.76565383195971 161.93662359087148 93.76565383195971 C 159.8443772339839 93.76565383195971 158.3868572999724 93.72259810554807 157.56406378883685 93.63648665272486 C 156.7412702777013 93.55037519990164 156.13005224085776 93.35662443104938 155.70690129227376 93.05523434616809 C 155.28375034368975 92.77537212449262 155.0016497113004 92.45245417640551 154.83709100907328 92.06495263870097 C 154.67253230684616 91.67745110099646 154.60200714874884 91.13925452085131 154.60200714874884 90.45036289826551 C 154.60200714874884 89.61077623323906 154.71954907891103 88.94341247385906 154.97814132526793 88.49132734653712 C 155.23673357162477 88.03924221921518 155.63637613417637 87.69479640792228 156.22408578498744 87.47951777586421 C 156.85881220786348 87.22118341739453 158.3633489139399 87.0920162381597 160.7141875171843 87.0920162381597 C 163.18256805059093 87.0920162381597 164.78113830079718 87.1565998277771 165.5334066538354 87.28576700701196 C 166.28567500687365 87.41493418624681 166.8733846576847 87.73785213433389 167.29653560626872 88.25452085127326 L 167.46109430849583 88.25452085127326 L 167.46109430849583 87.07048837495388 C 167.46109430849583 86.10173453069261 167.27302722023632 85.41284290810678 166.89689304371717 84.98228564399066 C 166.5677756392629 84.59478410628616 166.05059114654915 84.35797761102229 165.36884795160825 84.20728256858162 C 164.68710475666734 84.07811538934679 163.55870222711002 84.01353179972936 162.00714874896875 84.01353179972936 C 159.96191916414608 84.01353179972936 158.6454495463292 84.1211711157584 158.0342315094856 84.33644974781647 C 157.42301347264208 84.55172837987455 157.14091284025278 85.02534137040227 157.14091284025278 85.7788165826055 C 157.0703876821555 85.84340017222296 157.0703876821555 85.8864558986346 157.0703876821555 85.951039488252 Z  M 161.91311520483907 88.62049452577197 C 160.36156172669774 88.62049452577197 159.25666758317283 88.6420223889778 158.64544954632925 88.6850781153894 C 158.01072312345326 88.72813384180101 157.58757217486925 88.83577315783005 157.3289799285124 88.96494033706487 C 156.83530382183108 89.24480255874035 156.57671157547418 89.73994341247389 156.57671157547418 90.45036289826551 C 156.57671157547418 91.1607823840571 156.88232059389594 91.65592323779067 157.47003024470706 91.91425759626033 C 157.94019796535594 92.1295362283184 159.5622766015946 92.23717554434741 162.31275776739056 92.23717554434741 C 164.33447896618077 92.23717554434741 165.65094858399766 92.10800836511258 166.3091833929061 91.87120186984869 C 166.96741820181455 91.63439537458483 167.27302722023632 91.13925452085128 167.27302722023632 90.40730717185387 C 167.27302722023632 89.69688768606228 166.92040142974963 89.22327469553453 166.19164146274386 88.96494033706485 C 165.46288149573815 88.74966170500683 164.05237833379147 88.62049452577197 161.91311520483907 88.62049452577197 Z " fill-rule="evenodd" fill="rgb(255,255,255)" stroke-width="0.17962189590911132" stroke="rgba(0,0,0,0)" stroke-linejoin="miter" stroke-linecap="butt"/><path d=" M 170.9403354412977 89.80452700209135 L 172.9620566400879 89.80452700209135 C 172.9620566400879 89.955222044532 172.9620566400879 90.06286136056103 172.9620566400879 90.12744495017843 C 172.9620566400879 90.73022511994101 173.03258179818522 91.13925452085134 173.17363211437993 91.39758887932099 C 173.31468243057452 91.6559232377907 173.59678306296388 91.84967400664293 173.99642562551543 91.97884118587778 C 174.53711850426168 92.15106409152422 176.11218036843542 92.23717554434747 178.72161121803674 92.23717554434747 C 180.3436898542754 92.23717554434747 181.47209238383272 92.19411981793586 182.10681880670876 92.12953622831843 C 182.74154522958474 92.06495263870103 183.18820456420116 91.93578545946617 183.47030519659052 91.74203469061392 C 183.8464393731096 91.48370033214424 184.03450646136918 91.07467093123394 184.03450646136918 90.53647435108878 C 184.03450646136918 89.86911059170878 183.79942260104474 89.41702546438684 183.35276326642827 89.18021896912298 C 182.9061039318118 88.94341247385911 182.05980203464384 88.81424529462426 180.8608743469892 88.83577315783008 C 180.4847401704701 88.83577315783008 178.65108605993942 88.81424529462426 175.3834204014297 88.77118956821268 C 174.53711850426174 88.74966170500686 173.85537530932083 88.68507811538943 173.33819081660704 88.57743879936042 C 172.82100632389324 88.46979948333139 172.39785537530923 88.29757657768495 172.068737970855 88.06077008242106 C 171.43401154797903 87.60868495509912 171.1048941435248 86.8336818796901 171.1048941435248 85.75728871939977 C 171.1048941435248 84.61631196949203 171.50453670607635 83.79825316767138 172.30382183117945 83.28158445073204 C 172.72697277976346 83.00172222905657 173.40871597470436 82.80797146020429 174.37255980203452 82.70033214417525 C 175.33640362936472 82.57116496494042 176.723398405279 82.52810923852881 178.5100357437447 82.52810923852881 C 180.5317569425349 82.52810923852881 182.01278526257892 82.63574855455785 182.95312070387672 82.8294993234101 C 183.91696453120693 83.02325009226236 184.59870772614784 83.38922376676108 185.0453670607643 83.8843646204946 C 185.25694253505628 84.12117111575849 185.39799285125093 84.40103333743396 185.46851800934826 84.65936769590364 C 185.53904316744558 84.93922991757911 185.56255155347804 85.39131504490105 185.56255155347804 86.03715094107524 L 183.5643387407203 86.03715094107524 C 183.5643387407203 85.36978718169523 183.42328842452565 84.9177020543733 183.18820456420121 84.72395128552104 C 182.92961231784437 84.48714479025718 182.41242782513058 84.31492188461074 181.68366785812475 84.2072825685817 C 180.93139950508652 84.09964325255267 179.85001374759412 84.03505966293527 178.41600219961498 84.03505966293527 C 175.83007973604612 84.03505966293527 174.25501787187233 84.2072825685817 173.69081660709367 84.53020051666881 C 173.29117404454212 84.76700701193268 173.07959857025014 85.1975642760488 173.07959857025014 85.77881658260556 C 173.07959857025014 86.38159675236814 173.31468243057458 86.76909829007265 173.7848501512235 86.9628490589249 C 174.25501787187238 87.15659982777716 175.2188616992026 87.24271128060037 176.6293648611492 87.22118341739458 C 178.0398680230959 87.1996555541888 179.87352213362652 87.22118341739458 182.13032719274122 87.3072948702178 C 183.49381358262298 87.35035059662944 184.48116579598565 87.63021281830491 185.06887544679677 88.12535367203846 C 185.6800934836403 88.62049452577197 185.96219411602965 89.41702546438684 185.96219411602965 90.51494648788297 C 185.96219411602965 91.16078238405716 185.8681605718998 91.69897896420231 185.6565850976079 92.10800836511264 C 185.44500962331585 92.51703776602294 185.11589221886163 92.86148357731584 184.6222161121803 93.11981793578555 C 184.1990651635963 93.35662443104941 183.5408303546879 93.50731947349003 182.6004949133901 93.61495878951906 C 181.66015947209235 93.70107024234228 180.320181468243 93.76565383195974 178.5570525158097 93.76565383195974 C 176.58234808908435 93.76565383195974 175.10131976904034 93.70107024234231 174.1609843277426 93.59343092631327 C 173.1971405004124 93.48579161028427 172.51539730547148 93.29204084143201 172.068737970855 93.01217861975651 C 171.62207863623854 92.73231639808104 171.29296123178437 92.40939844999393 171.1048941435248 92.0003690490836 C 170.9168270552653 91.6128675113791 170.82279351113544 91.05314306802812 170.82279351113544 90.36425144544232 C 170.9403354412977 90.2996678558249 170.9403354412977 90.10591708697261 170.9403354412977 89.80452700209135 Z " fill="rgb(255,255,255)" stroke-width="0.17962189590911132" stroke="rgba(0,0,0,0)" stroke-linejoin="miter" stroke-linecap="butt"/><path d=" M 189.72353588122064 79.94476565383202 L 191.62771514984865 79.94476565383202 L 191.62771514984865 82.65727641776364 L 200.0202089634313 82.65727641776364 L 200.0202089634313 84.14269897896428 L 191.62771514984865 84.14269897896428 L 191.62771514984865 88.90035674744747 C 191.65122353588106 89.93369418132617 191.67473192191352 90.57953007750037 191.72174869397844 90.81633657276426 C 191.76876546604336 91.05314306802812 191.88630739620555 91.2684217000862 192.09788287049753 91.50522819535006 C 192.33296673082197 91.78509041702553 192.68559252130865 91.957313322672 193.15576024195752 92.08648050190685 C 193.6259279626064 92.19411981793588 194.3076711575473 92.25870340755328 195.2244982128126 92.25870340755328 C 196.0708001099806 92.25870340755328 196.6820181468242 92.21564768114165 197.08166070937574 92.08648050190685 C 197.45779488589483 91.97884118587781 197.76340390431665 91.78509041702556 197.99848776464108 91.50522819535006 C 198.13953808083573 91.3114774264978 198.23357162496552 91.07467093123394 198.28058839703044 90.79480870955847 C 198.3276051690953 90.514946487883 198.35111355512777 90.04133349735524 198.35111355512777 89.37396973797523 L 198.35111355512777 88.68507811538943 L 200.23178443772326 88.68507811538943 L 200.23178443772326 89.37396973797523 C 200.23178443772326 90.21355640300168 200.1847676656584 90.85939229917587 200.09073412152867 91.28994956329198 C 199.99670057739883 91.72050682740813 199.83214187517177 92.10800836511264 199.59705801484733 92.43092631319972 C 199.24443222436065 92.90453930372747 198.7272477316469 93.24898511502035 198.02199615067354 93.46426374707842 C 197.31674456970023 93.67954237913649 196.35290074237003 93.7871816951655 195.083447896618 93.7871816951655 C 193.79048666483357 93.7871816951655 192.7796260654385 93.70107024234228 192.05086609843266 93.50731947349003 C 191.32210613142695 93.3135687046378 190.78141325268064 92.99065075655069 190.428787462194 92.56009349243458 C 190.1701952158371 92.23717554434747 189.98212812757754 91.87120186984875 189.8880945834478 91.44064460573263 C 189.79406103931797 91.01008734161651 189.74704426725316 90.36425144544232 189.74704426725316 89.50313691721006 L 189.74704426725316 84.1642268421701 L 186.8084960131976 84.1642268421701 L 186.8084960131976 82.67880428096946 L 189.74704426725316 82.67880428096946 L 189.74704426725316 79.94476565383202 L 189.72353588122064 79.94476565383202 Z " fill="rgb(255,255,255)" stroke-width="0.17962189590911132" stroke="rgba(0,0,0,0)" stroke-linejoin="miter" stroke-linecap="butt"/><path d=" M 201.57176244157262 82.65727641776364 L 203.47594171020057 82.65727641776364 L 203.47594171020057 84.14269897896428 L 203.59348364036282 84.14269897896428 C 203.89909265878458 83.64755812523073 204.34575199340105 83.2600565875262 204.93346164421217 82.98019436585072 C 205.2860874346988 82.80797146020429 205.77976354138013 82.70033214417525 206.36747319219126 82.63574855455782 C 206.95518284300232 82.57116496494042 207.8485015122352 82.52810923852878 209.02392081385744 82.52810923852878 C 210.19934011547963 82.52810923852878 211.0691503986801 82.59269282814621 211.65686004949123 82.70033214417522 C 212.2445697003023 82.82949932341008 212.73824580698363 83.04477795546815 213.13788836953518 83.34616804034941 C 213.93717349463833 83.9920039365236 214.36032444322228 85.0253413704023 214.36032444322228 86.44618034198554 L 214.36032444322228 87.58715709189327 L 212.40912840252946 87.58715709189327 L 212.40912840252946 86.79062615327841 C 212.40912840252946 86.18784598351586 212.36211163046454 85.7142329929881 212.2680780863348 85.41284290810681 C 212.17404454220497 85.08992496001973 212.03299422601037 84.85311846475584 211.79791036568588 84.6378398326978 C 211.327742645037 84.22881043178747 210.31688204564193 84.03505966293521 208.81234533956547 84.03505966293521 C 206.53203189441837 84.03505966293521 205.07451196040682 84.31492188461068 204.41627715149838 84.85311846475584 C 203.78155072862234 85.39131504490099 203.45243332416817 86.63993111083776 203.45243332416817 88.55591093615455 L 203.45243332416817 93.61495878951904 L 201.5482540555402 93.61495878951904 L 201.5482540555402 82.65727641776364 L 201.57176244157262 82.65727641776364 Z " fill="rgb(255,255,255)" stroke-width="0.17962189590911132" stroke="rgba(0,0,0,0)" stroke-linejoin="miter" stroke-linecap="butt"/><path d=" M 215.70030244707164 77.8565629228688 L 217.6044817156996 77.8565629228688 L 217.6044817156996 79.9232377906262 L 215.70030244707164 79.9232377906262 L 215.70030244707164 77.8565629228688 Z  M 215.70030244707164 82.65727641776364 L 217.6044817156996 82.65727641776364 L 217.6044817156996 93.63648665272488 L 215.70030244707164 93.63648665272488 L 215.70030244707164 82.65727641776364 Z " fill-rule="evenodd" fill="rgb(255,255,255)" stroke-width="0.17962189590911132" stroke="rgba(0,0,0,0)" stroke-linejoin="miter" stroke-linecap="butt"/><path d=" M 219.8612867748143 77.8565629228688 L 221.76546604344225 77.8565629228688 L 221.76546604344225 93.63648665272486 L 219.8612867748143 93.63648665272486 L 219.8612867748143 77.8565629228688 Z " fill="rgb(255,255,255)" stroke-width="0.17962189590911132" stroke="rgba(0,0,0,0)" stroke-linejoin="miter" stroke-linecap="butt"/><path d=" M 223.99876271652448 77.8565629228688 L 225.90294198515244 77.8565629228688 L 225.90294198515244 93.63648665272486 L 223.99876271652448 93.63648665272486 L 223.99876271652448 77.8565629228688 Z " fill="rgb(255,255,255)" stroke-width="0.17962189590911132" stroke="rgba(0,0,0,0)" stroke-linejoin="miter" stroke-linecap="butt"/><path d=" M 235.16524608193555 82.52810923852878 C 237.0459169645311 82.52810923852878 238.43291174044532 82.57116496494042 239.3497387957106 82.67880428096946 C 240.2430574649435 82.78644359699847 240.9483090459168 82.98019436585072 241.4419851525982 83.26005658752622 C 242.19425350563642 83.66908598843655 242.73494638438262 84.27186615819913 243.08757217486925 85.02534137040236 C 243.41668957932353 85.8003444458114 243.5812482815506 86.8336818796901 243.5812482815506 88.14688153524428 C 243.5812482815506 89.61077623323912 243.36967280725855 90.73022511994104 242.97003024470706 91.48370033214427 C 242.6644212262853 92.06495263870106 242.28828704976615 92.51703776602297 241.79461094308482 92.83995571411008 C 241.30093483640354 93.16287366219716 240.6662084135275 93.39968015746102 239.8669232884244 93.55037519990167 C 239.09114654935377 93.70107024234231 237.79818531756928 93.76565383195974 236.0115479791035 93.76565383195974 C 234.31894418476747 93.76565383195974 233.02598295298304 93.7225981055481 232.15617266978262 93.61495878951906 C 231.28636238658214 93.50731947349003 230.58111080560883 93.3135687046378 230.04041792686263 93.05523434616809 C 229.24113280175948 92.66773280846361 228.67693153698087 92.08648050190682 228.3243057464942 91.31147742649777 C 227.97167995600756 90.53647435108876 227.8071212537804 89.48160905400424 227.8071212537804 88.08229794562682 C 227.8071212537804 86.53229179480876 228.0657135001373 85.36978718169523 228.55938960681863 84.5732562430804 C 229.05306571349996 83.75519744125977 229.75831729447327 83.21700086111461 230.6516359637062 82.93713863943911 C 231.52144624690663 82.67880428096943 233.0259829529831 82.52810923852878 235.16524608193555 82.52810923852878 Z  M 235.44734671432485 84.05658752614106 C 234.20140225460534 84.05658752614106 233.23755842727508 84.09964325255267 232.60283200439915 84.18575470537589 C 231.9681055815231 84.2718661581991 231.4509210888093 84.42256120063978 231.07478691229022 84.63783983269782 C 230.6281275776738 84.8961741911675 230.29901017321959 85.30520359207783 230.11094308496007 85.8864558986346 C 229.89936761066804 86.44618034198557 229.8053340665383 87.22118341739458 229.8053340665383 88.21146512486168 C 229.8053340665383 89.33091401156362 229.94638438273296 90.14897281338425 230.20497662908986 90.70869725673522 C 230.4635688754467 91.2684217000862 230.93373659609563 91.6559232377907 231.59197140500407 91.89272973305457 C 232.32073137200985 92.15106409152425 233.73123453395652 92.28023127075907 235.82348089084405 92.28023127075907 C 237.1869672807258 92.28023127075907 238.19782788012094 92.23717554434744 238.83255430299693 92.15106409152422 C 239.4672807258729 92.064952638701 239.9844652185867 91.89272973305454 240.3605993951058 91.63439537458488 C 240.7837503436898 91.35453315290941 241.08935936211157 90.96703161520487 241.25391806433868 90.42883503505972 C 241.44198515259825 89.89063845491457 241.53601869672804 89.13716324271134 241.53601869672804 88.14688153524425 C 241.53601869672804 86.98437692213069 241.39496838053338 86.14479025710425 241.11286774814403 85.6065936769591 C 240.7837503436898 85.00381350719651 240.26656585097606 84.59478410628618 239.51429749793783 84.40103333743393 C 238.785537530932 84.14269897896428 237.4220511410502 84.05658752614106 235.44734671432485 84.05658752614106 Z " fill-rule="evenodd" fill="rgb(255,255,255)" stroke-width="0.17962189590911132" stroke="rgba(0,0,0,0)" stroke-linejoin="miter" stroke-linecap="butt"/><path d=" M 245.3913940060488 82.65727641776364 L 247.29557327467677 82.65727641776364 L 247.29557327467677 84.31492188461074 L 247.43662359087142 84.31492188461074 C 247.83626615342297 83.60450239881912 248.4474841902665 83.1308894082914 249.29378608743457 82.8940829130275 C 250.11657959857007 82.65727641776364 251.52708276051675 82.52810923852878 253.5017871872421 82.52810923852878 C 255.21789936761053 82.52810923852878 256.48735221336256 82.614220691352 257.3101457244981 82.78644359699847 C 258.1329392356336 82.95866650264493 258.79117404454206 83.28158445073201 259.26134176519093 83.73366957805395 C 259.63747594171 84.09964325255267 259.896068188067 84.55172837987458 260.0371185042616 85.08992496001976 C 260.1781688204563 85.62812154016491 260.2486939785536 86.42465247877975 260.2486939785536 87.43646204945263 L 260.2486939785536 93.63648665272486 L 258.34451470992565 93.63648665272486 L 258.34451470992565 88.16840939845004 C 258.34451470992565 87.19965555418877 258.2974979378608 86.48923606839715 258.203464393731 86.05867880428103 C 258.1094308496012 85.62812154016491 257.94487214737416 85.2621478656662 257.6627715149848 84.98228564399072 C 257.3336541105306 84.6378398326978 256.8634863898817 84.40103333743393 256.18174319494085 84.25033829499331 C 255.5235083860324 84.09964325255264 254.53615617266973 84.03505966293524 253.21968655485284 84.03505966293524 C 251.7621666208413 84.03505966293524 250.61025570525157 84.14269897896428 249.78746219411602 84.33644974781653 C 248.96466868298046 84.53020051666878 248.35345064613693 84.85311846475587 247.9538080835854 85.3052035920778 C 247.67170745119603 85.62812154016491 247.48364036293646 85.99409521466363 247.38960681880667 86.40312461557393 C 247.29557327467688 86.81215401648426 247.24855650261202 87.52257350227588 247.24855650261202 88.55591093615458 L 247.24855650261202 93.63648665272488 L 245.34437723398406 93.63648665272488 L 245.34437723398406 82.65727641776364 L 245.3913940060488 82.65727641776364 Z " fill="rgb(255,255,255)" stroke-width="0.17962189590911132" stroke="rgba(0,0,0,0)" stroke-linejoin="miter" stroke-linecap="butt"/></svg>