<?xml version="1.0" standalone="no"?><!-- Generator: Gravit.io --><svg xmlns="http://www.w3.org/2000/svg" xmlns:xlink="http://www.w3.org/1999/xlink" style="isolation:isolate" width="100" height="60"><path d=" M 75.99805900621118 46.56314699792961 Q 75.99805900621118 47.10144927536231 75.47705581971395 47.515527950310556 L 72.87203988722787 49.58592132505176 Q 72.35103670073065 50 71.67373255828426 50 Q 70.99642841583788 50 70.47542522934066 49.58592132505176 L 49.99999999999999 33.312629399585916 L 29.52457477065932 49.58592132505176 Q 29.003571584162103 50 28.32626744171572 50 Q 27.64896329926934 50 27.127960112772122 49.58592132505176 L 24.522944180286032 47.515527950310556 Q 24.001940993788814 47.10144927536231 24.001940993788814 46.56314699792961 Q 24.001940993788814 46.0248447204969 24.522944180286032 45.61076604554866 L 48.801692671056394 26.314699792960656 Q 49.32269585755361 25.90062111801242 49.99999999999999 25.90062111801242 Q 50.677304142446374 25.90062111801242 51.19830732894359 26.314699792960656 L 75.47705581971395 45.61076604554866 Q 75.99805900621118 46.0248447204969 75.99805900621118 46.56314699792961 Z  M 75.99805900621118 30.66252587991718 Q 75.99805900621118 31.200828157349893 75.47705581971395 31.614906832298136 L 72.87203988722787 33.68530020703933 Q 72.35103670073065 34.099378881987576 71.67373255828426 34.099378881987576 Q 70.99642841583788 34.099378881987576 70.47542522934066 33.68530020703933 L 49.99999999999999 17.412008281573495 L 29.52457477065932 33.68530020703933 Q 29.003571584162103 34.099378881987576 28.32626744171572 34.099378881987576 Q 27.64896329926934 34.099378881987576 27.127960112772122 33.68530020703933 L 24.522944180286032 31.614906832298136 Q 24.001940993788814 31.200828157349893 24.001940993788814 30.66252587991718 Q 24.001940993788814 30.124223602484467 24.522944180286032 29.71014492753623 L 48.801692671056394 10.414078674948236 Q 49.32269585755361 9.999999999999993 49.99999999999999 9.999999999999993 Q 50.677304142446374 9.999999999999993 51.19830732894359 10.414078674948236 L 75.47705581971395 29.71014492753623 Q 75.99805900621118 30.124223602484467 75.99805900621118 30.66252587991718 Z " fill-rule="evenodd" fill="rgb(0,0,0)" stroke-width="1" stroke="rgba(0,0,0,0)" stroke-linejoin="miter" stroke-linecap="butt"/></svg>